<svg width="339" height="53" viewBox="0 0 339 53" fill="none" xmlns="http://www.w3.org/2000/svg">
<path d="M73.62 40H90.324V35.356H79.524V16.312H73.62V40ZM99.6955 40.288C103.08 40.288 105.492 38.776 106.284 35.356H106.356C106.32 37.3 106.212 38.776 106.104 40H111.576V22.216H106.104V29.92C106.104 33.808 104.34 35.752 101.388 35.752C99.0475 35.752 97.6795 34.6 97.6795 32.116V22.216H92.2075V32.764C92.2075 37.984 95.0875 40.288 99.6955 40.288ZM114.432 47.128H119.904V40.396C119.904 39.748 119.796 37.984 119.724 36.796H119.76C120.552 38.956 122.568 40.288 125.808 40.288C130.812 40.288 134.052 36.472 134.052 30.712C134.052 25.456 130.812 21.928 125.844 21.928C122.784 21.928 120.516 23.404 119.832 25.852H119.796L119.904 22.216H114.432V47.128ZM124.512 36.112C121.74 36.112 119.904 34.42 119.904 31.864V31.072C119.904 28.084 121.74 26.104 124.476 26.104C126.96 26.104 128.616 28.048 128.616 30.928C128.616 34.024 126.96 36.112 124.512 36.112ZM154.293 30.604C154.293 24.772 150.801 21.928 145.833 21.928C139.821 21.928 136.149 25.42 136.149 31.288C136.149 36.94 139.821 40.288 145.725 40.288C150.801 40.288 154.185 37.912 154.293 33.844H149.469C149.325 35.572 147.957 36.328 145.833 36.328C143.385 36.328 141.909 35.068 141.657 32.152H154.293V30.604ZM149.469 29.236H141.801C142.233 26.896 143.529 25.888 145.833 25.888C148.101 25.888 149.469 26.932 149.469 28.948V29.236ZM165.237 40H171.141V33.232H175.965C182.157 33.232 185.109 30.136 185.109 24.88C185.109 19.156 181.473 16.312 175.425 16.312H165.237V40ZM171.141 29.272V20.956H175.245C178.053 20.956 179.565 22.468 179.565 25.168C179.565 27.94 178.197 29.272 175.713 29.272H171.141ZM194.113 40.288C197.353 40.288 199.369 38.92 199.909 36.4H199.945C199.945 37.48 199.801 39.1 199.693 40H205.165V29.2C205.165 24.448 201.853 21.928 196.201 21.928C190.801 21.928 187.633 24.052 187.633 27.652C187.633 28.012 187.669 28.408 187.705 28.696H192.745C192.709 28.336 192.709 28.048 192.709 27.94C192.709 26.5 193.897 25.636 195.949 25.636C198.469 25.636 199.693 26.5 199.693 28.66V29.848H193.897C189.181 29.848 187.093 31.972 187.093 34.888C187.093 38.488 189.973 40.288 194.113 40.288ZM195.193 36.58C193.213 36.58 192.025 35.86 192.025 34.492C192.025 33.484 192.925 32.8 194.401 32.8H199.693V33.16C199.693 35.32 198.037 36.58 195.193 36.58ZM207.735 40H213.207V31.54C213.207 28.156 214.935 26.464 217.815 26.464C220.227 26.464 221.667 27.58 221.667 30.1V40H227.139V28.876C227.139 24.268 224.367 21.928 220.083 21.928C216.051 21.928 213.963 23.548 213.063 26.932H212.991L213.207 22.216H207.735V40ZM229.852 20.344H235.324V15.988H229.852V20.344ZM229.852 40H235.324V22.216H229.852V40ZM245.02 40.288C248.26 40.288 250.276 38.92 250.816 36.4H250.852C250.852 37.48 250.708 39.1 250.6 40H256.072V29.2C256.072 24.448 252.76 21.928 247.108 21.928C241.708 21.928 238.54 24.052 238.54 27.652C238.54 28.012 238.576 28.408 238.612 28.696H243.652C243.616 28.336 243.616 28.048 243.616 27.94C243.616 26.5 244.804 25.636 246.856 25.636C249.376 25.636 250.6 26.5 250.6 28.66V29.848H244.804C240.088 29.848 238 31.972 238 34.888C238 38.488 240.88 40.288 245.02 40.288ZM246.1 36.58C244.12 36.58 242.932 35.86 242.932 34.492C242.932 33.484 243.832 32.8 245.308 32.8H250.6V33.16C250.6 35.32 248.944 36.58 246.1 36.58ZM271.529 36.76H265.769C264.689 36.76 264.041 36.292 264.041 35.5C264.041 34.996 264.221 34.564 264.365 34.348C265.265 34.528 266.237 34.636 267.317 34.636C272.573 34.636 275.669 32.296 275.669 28.3C275.669 27.04 275.381 25.96 274.805 25.06C274.553 24.412 274.409 23.872 274.409 23.44C274.409 22.612 274.949 22.108 276.101 22.108C276.497 22.108 276.857 22.144 277.181 22.216V18.76C276.677 18.652 276.173 18.58 275.201 18.58C272.933 18.58 271.457 19.444 271.457 20.92C271.457 21.568 271.781 22.288 272.501 22.936L272.465 23.008C271.133 22.288 269.405 21.928 267.317 21.928C262.097 21.928 259.001 24.304 259.001 28.3C259.001 30.604 260.045 32.368 261.917 33.448V33.484C260.585 34.096 259.721 35.14 259.721 36.832C259.721 38.092 260.297 39.064 261.377 39.748V39.784C259.397 40 258.173 41.152 258.173 43.024C258.173 45.976 261.881 47.704 268.145 47.704C274.301 47.704 277.937 45.544 277.937 41.476C277.937 38.524 275.561 36.76 271.529 36.76ZM267.317 25.384C269.333 25.384 270.521 26.464 270.521 28.3C270.521 30.1 269.333 31.18 267.317 31.18C265.337 31.18 264.149 30.1 264.149 28.3C264.149 26.464 265.337 25.384 267.317 25.384ZM268.073 44.392C265.265 44.392 263.609 43.672 263.609 42.34C263.609 41.332 264.473 40.72 265.949 40.72H270.161C271.745 40.72 272.465 41.26 272.465 42.232C272.465 43.636 270.845 44.392 268.073 44.392ZM287.324 40.288C290.708 40.288 293.12 38.776 293.912 35.356H293.984C293.948 37.3 293.84 38.776 293.732 40H299.204V22.216H293.732V29.92C293.732 33.808 291.968 35.752 289.016 35.752C286.676 35.752 285.308 34.6 285.308 32.116V22.216H279.836V32.764C279.836 37.984 282.716 40.288 287.324 40.288ZM308.793 40.288C312.033 40.288 314.049 38.92 314.589 36.4H314.625C314.625 37.48 314.481 39.1 314.373 40H319.845V29.2C319.845 24.448 316.533 21.928 310.881 21.928C305.481 21.928 302.313 24.052 302.313 27.652C302.313 28.012 302.349 28.408 302.385 28.696H307.425C307.389 28.336 307.389 28.048 307.389 27.94C307.389 26.5 308.577 25.636 310.629 25.636C313.149 25.636 314.373 26.5 314.373 28.66V29.848H308.577C303.861 29.848 301.773 31.972 301.773 34.888C301.773 38.488 304.653 40.288 308.793 40.288ZM309.873 36.58C307.893 36.58 306.705 35.86 306.705 34.492C306.705 33.484 307.605 32.8 309.081 32.8H314.373V33.16C314.373 35.32 312.717 36.58 309.873 36.58Z" fill="#2758BE"/>
<path d="M26.5 0L30.8918 17.3803L47.2185 9.97752L36.3683 24.2476L52.3356 32.3968L34.4138 32.811L37.9979 50.3757L26.5 36.6221L15.0021 50.3757L18.5862 32.811L0.66441 32.3968L16.6317 24.2476L5.78147 9.97752L22.1082 17.3803L26.5 0Z" fill="#2758BE"/>
</svg>
