<svg width="202" height="34" viewBox="0 0 202 34" fill="none" xmlns="http://www.w3.org/2000/svg">
<path d="M42.552 23.5V7.564H45.888V20.596H53.784V23.5H42.552ZM61.929 23.5V21.844C61.129 23.156 59.905 23.812 58.257 23.812C57.665 23.812 57.121 23.708 56.625 23.5C56.145 23.292 55.729 22.996 55.377 22.612C55.025 22.228 54.745 21.772 54.537 21.244C54.345 20.716 54.249 20.124 54.249 19.468V11.692H57.369V18.988C57.369 20.46 58.033 21.196 59.361 21.196C60.161 21.196 60.761 20.948 61.161 20.452C61.577 19.94 61.785 19.292 61.785 18.508V11.692H64.881V23.5H61.929ZM71.817 21.148C73.609 21.148 74.505 19.932 74.505 17.5C74.505 16.444 74.257 15.588 73.761 14.932C73.265 14.26 72.625 13.924 71.841 13.924C71.089 13.924 70.457 14.236 69.945 14.86C69.449 15.484 69.201 16.3 69.201 17.308C69.201 19.868 70.073 21.148 71.817 21.148ZM66.249 29.092V11.692H69.249L69.273 13.132C69.993 11.964 71.089 11.38 72.561 11.38C73.297 11.38 73.977 11.524 74.601 11.812C75.241 12.1 75.785 12.516 76.233 13.06C76.681 13.604 77.033 14.268 77.289 15.052C77.545 15.836 77.673 16.724 77.673 17.716C77.673 18.612 77.561 19.436 77.337 20.188C77.129 20.924 76.817 21.564 76.401 22.108C75.985 22.652 75.473 23.076 74.865 23.38C74.273 23.668 73.593 23.812 72.825 23.812C71.369 23.812 70.201 23.196 69.321 21.964V29.092H66.249ZM86.5875 16.444C86.5715 16.012 86.4915 15.636 86.3475 15.316C86.2195 14.98 86.0435 14.708 85.8195 14.5C85.5955 14.276 85.3395 14.116 85.0515 14.02C84.7635 13.908 84.4675 13.852 84.1635 13.852C83.5395 13.852 82.9955 14.084 82.5315 14.548C82.0835 14.996 81.8275 15.628 81.7635 16.444H86.5875ZM81.6675 18.412C81.7155 19.308 81.9715 20.02 82.4355 20.548C82.9155 21.076 83.5395 21.34 84.3075 21.34C84.8195 21.34 85.2675 21.228 85.6515 21.004C86.0515 20.764 86.3075 20.436 86.4195 20.02H89.6355C89.2675 21.236 88.6275 22.172 87.7155 22.828C86.8035 23.484 85.7155 23.812 84.4515 23.812C80.5155 23.812 78.5475 21.668 78.5475 17.38C78.5475 16.468 78.6755 15.644 78.9315 14.908C79.1875 14.172 79.5555 13.54 80.0355 13.012C80.5315 12.484 81.1315 12.084 81.8355 11.812C82.5395 11.524 83.3475 11.38 84.2595 11.38C86.0835 11.38 87.4595 11.964 88.3875 13.132C89.3315 14.3 89.8035 16.06 89.8035 18.412H81.6675ZM103.103 15.004C104.063 15.004 104.751 14.788 105.167 14.356C105.599 13.908 105.815 13.332 105.815 12.628C105.815 11.956 105.599 11.404 105.167 10.972C104.751 10.54 104.063 10.324 103.103 10.324H99.9349V15.004H103.103ZM96.5989 23.5V7.564H103.631C104.415 7.564 105.119 7.7 105.743 7.972C106.367 8.228 106.903 8.596 107.351 9.076C107.799 9.54 108.143 10.084 108.383 10.708C108.623 11.332 108.743 12.004 108.743 12.724C108.743 13.444 108.623 14.116 108.383 14.74C108.143 15.348 107.799 15.876 107.351 16.324C106.903 16.756 106.367 17.1 105.743 17.356C105.119 17.596 104.415 17.716 103.631 17.716H99.9349V23.5H96.5989ZM116.245 17.716C116.085 17.876 115.853 18.004 115.549 18.1C115.245 18.196 114.805 18.3 114.229 18.412C113.333 18.588 112.717 18.812 112.381 19.084C112.045 19.356 111.877 19.748 111.877 20.26C111.877 21.14 112.381 21.58 113.389 21.58C113.789 21.58 114.157 21.516 114.493 21.388C114.845 21.244 115.141 21.06 115.381 20.836C115.637 20.596 115.837 20.324 115.981 20.02C116.141 19.7 116.221 19.364 116.221 19.012L116.245 17.716ZM116.461 23.5C116.365 23.196 116.301 22.844 116.269 22.444C115.901 22.86 115.413 23.196 114.805 23.452C114.197 23.692 113.493 23.812 112.693 23.812C111.333 23.812 110.333 23.516 109.693 22.924C109.069 22.316 108.757 21.532 108.757 20.572C108.757 19.724 108.893 19.052 109.165 18.556C109.437 18.044 109.813 17.644 110.293 17.356C110.773 17.068 111.341 16.86 111.997 16.732C112.669 16.588 113.397 16.46 114.181 16.348C114.965 16.236 115.493 16.092 115.765 15.916C116.037 15.724 116.173 15.42 116.173 15.004C116.173 14.62 115.989 14.324 115.621 14.116C115.269 13.892 114.789 13.78 114.181 13.78C113.461 13.78 112.941 13.94 112.621 14.26C112.317 14.58 112.125 15.004 112.045 15.532H109.141C109.157 14.924 109.253 14.364 109.429 13.852C109.621 13.34 109.917 12.9 110.317 12.532C110.733 12.164 111.269 11.884 111.925 11.692C112.581 11.484 113.381 11.38 114.325 11.38C115.253 11.38 116.037 11.484 116.677 11.692C117.333 11.9 117.853 12.204 118.237 12.604C118.637 12.988 118.925 13.476 119.101 14.068C119.277 14.644 119.365 15.3 119.365 16.036V23.5H116.461ZM128.301 23.5V16.348C128.301 15.436 128.149 14.82 127.845 14.5C127.541 14.18 127.021 14.02 126.285 14.02C124.669 14.02 123.861 14.924 123.861 16.732V23.5H120.741V11.692H123.717V13.42C124.085 12.748 124.573 12.244 125.181 11.908C125.789 11.556 126.573 11.38 127.533 11.38C128.093 11.38 128.613 11.468 129.093 11.644C129.573 11.804 129.981 12.052 130.317 12.388C130.669 12.724 130.941 13.14 131.133 13.636C131.341 14.116 131.445 14.676 131.445 15.316V23.5H128.301ZM132.884 23.5V11.692H136.004V23.5H132.884ZM132.884 10.276V7.372H136.004V10.276H132.884ZM144.605 17.716C144.445 17.876 144.213 18.004 143.909 18.1C143.605 18.196 143.165 18.3 142.589 18.412C141.693 18.588 141.077 18.812 140.741 19.084C140.405 19.356 140.237 19.748 140.237 20.26C140.237 21.14 140.741 21.58 141.749 21.58C142.149 21.58 142.517 21.516 142.853 21.388C143.205 21.244 143.501 21.06 143.741 20.836C143.997 20.596 144.197 20.324 144.341 20.02C144.501 19.7 144.581 19.364 144.581 19.012L144.605 17.716ZM144.821 23.5C144.725 23.196 144.661 22.844 144.629 22.444C144.261 22.86 143.773 23.196 143.165 23.452C142.557 23.692 141.853 23.812 141.053 23.812C139.693 23.812 138.693 23.516 138.053 22.924C137.429 22.316 137.117 21.532 137.117 20.572C137.117 19.724 137.253 19.052 137.525 18.556C137.797 18.044 138.173 17.644 138.653 17.356C139.133 17.068 139.701 16.86 140.357 16.732C141.029 16.588 141.757 16.46 142.541 16.348C143.325 16.236 143.853 16.092 144.125 15.916C144.397 15.724 144.533 15.42 144.533 15.004C144.533 14.62 144.349 14.324 143.981 14.116C143.629 13.892 143.149 13.78 142.541 13.78C141.821 13.78 141.301 13.94 140.981 14.26C140.677 14.58 140.485 15.004 140.405 15.532H137.501C137.517 14.924 137.613 14.364 137.789 13.852C137.981 13.34 138.277 12.9 138.677 12.532C139.093 12.164 139.629 11.884 140.285 11.692C140.941 11.484 141.741 11.38 142.685 11.38C143.613 11.38 144.397 11.484 145.037 11.692C145.693 11.9 146.213 12.204 146.597 12.604C146.997 12.988 147.285 13.476 147.461 14.068C147.637 14.644 147.725 15.3 147.725 16.036V23.5H144.821ZM154.765 21.148C155.533 21.148 156.165 20.86 156.661 20.284C157.173 19.692 157.429 18.892 157.429 17.884C157.429 15.356 156.541 14.092 154.765 14.092C152.989 14.092 152.101 15.292 152.101 17.692C152.101 18.748 152.349 19.588 152.845 20.212C153.357 20.836 153.997 21.148 154.765 21.148ZM157.333 21.916C157.109 22.444 156.701 22.86 156.109 23.164C155.533 23.452 154.861 23.596 154.093 23.596C153.117 23.596 152.293 23.428 151.621 23.092C150.965 22.74 150.429 22.284 150.013 21.724C149.613 21.164 149.317 20.516 149.125 19.78C148.949 19.044 148.861 18.292 148.861 17.524C148.861 16.612 148.997 15.78 149.269 15.028C149.541 14.26 149.909 13.612 150.373 13.084C150.837 12.54 151.381 12.124 152.005 11.836C152.629 11.532 153.301 11.38 154.021 11.38C155.493 11.38 156.597 11.972 157.333 13.156V11.692H160.453V23.62C160.453 24.516 160.301 25.3 159.997 25.972C159.693 26.66 159.277 27.228 158.749 27.676C158.221 28.14 157.597 28.492 156.877 28.732C156.157 28.972 155.389 29.092 154.573 29.092C153.757 29.092 152.997 28.972 152.293 28.732C151.589 28.508 150.981 28.18 150.469 27.748C149.973 27.332 149.581 26.82 149.293 26.212C149.005 25.604 148.861 24.916 148.861 24.148H151.765C151.765 24.868 151.997 25.42 152.461 25.804C152.941 26.204 153.573 26.404 154.357 26.404C155.189 26.404 155.893 26.172 156.469 25.708C157.045 25.26 157.333 24.644 157.333 23.86V21.916ZM169.507 23.5V21.844C168.707 23.156 167.483 23.812 165.835 23.812C165.243 23.812 164.699 23.708 164.203 23.5C163.723 23.292 163.307 22.996 162.955 22.612C162.603 22.228 162.323 21.772 162.115 21.244C161.923 20.716 161.827 20.124 161.827 19.468V11.692H164.947V18.988C164.947 20.46 165.611 21.196 166.939 21.196C167.739 21.196 168.339 20.948 168.739 20.452C169.155 19.94 169.363 19.292 169.363 18.508V11.692H172.459V23.5H169.507ZM181.003 17.716C180.843 17.876 180.611 18.004 180.307 18.1C180.003 18.196 179.563 18.3 178.987 18.412C178.091 18.588 177.475 18.812 177.139 19.084C176.803 19.356 176.635 19.748 176.635 20.26C176.635 21.14 177.139 21.58 178.147 21.58C178.547 21.58 178.915 21.516 179.251 21.388C179.603 21.244 179.899 21.06 180.139 20.836C180.395 20.596 180.595 20.324 180.739 20.02C180.899 19.7 180.979 19.364 180.979 19.012L181.003 17.716ZM181.219 23.5C181.123 23.196 181.059 22.844 181.027 22.444C180.659 22.86 180.171 23.196 179.563 23.452C178.955 23.692 178.251 23.812 177.451 23.812C176.091 23.812 175.091 23.516 174.451 22.924C173.827 22.316 173.515 21.532 173.515 20.572C173.515 19.724 173.651 19.052 173.923 18.556C174.195 18.044 174.571 17.644 175.051 17.356C175.531 17.068 176.099 16.86 176.755 16.732C177.427 16.588 178.155 16.46 178.939 16.348C179.723 16.236 180.251 16.092 180.523 15.916C180.795 15.724 180.931 15.42 180.931 15.004C180.931 14.62 180.747 14.324 180.379 14.116C180.027 13.892 179.547 13.78 178.939 13.78C178.219 13.78 177.699 13.94 177.379 14.26C177.075 14.58 176.883 15.004 176.803 15.532H173.899C173.915 14.924 174.011 14.364 174.187 13.852C174.379 13.34 174.675 12.9 175.075 12.532C175.491 12.164 176.027 11.884 176.683 11.692C177.339 11.484 178.139 11.38 179.083 11.38C180.011 11.38 180.795 11.484 181.435 11.692C182.091 11.9 182.611 12.204 182.995 12.604C183.395 12.988 183.683 13.476 183.859 14.068C184.035 14.644 184.123 15.3 184.123 16.036V23.5H181.219Z" fill="#2758BE"/>
<path d="M16.5 0.5L19.2345 11.3217L29.4002 6.71242L22.6444 15.5976L32.5863 20.6716L21.4274 20.9295L23.6591 31.866L16.5 23.3024L9.34092 31.866L11.5726 20.9295L0.413689 20.6716L10.3556 15.5976L3.59978 6.71242L13.7655 11.3217L16.5 0.5Z" fill="#2758BE"/>
</svg>
