<svg width="24" height="25" viewBox="0 0 24 25" fill="none" xmlns="http://www.w3.org/2000/svg">
<path fill-rule="evenodd" clip-rule="evenodd" d="M14.1996 2.05C14.1996 1.74624 13.9534 1.5 13.6496 1.5L10.3496 1.5C10.0459 1.5 9.79964 1.74624 9.79964 2.05L9.79964 10.2998L1.55043 10.2998C1.24668 10.2998 1.00043 10.5461 1.00043 10.8498L1.00043 14.1498C1.00043 14.4536 1.24668 14.6998 1.55043 14.6998L9.79964 14.6998L9.79964 22.95C9.79964 23.2538 10.0459 23.5 10.3496 23.5L13.6496 23.5C13.9534 23.5 14.1996 23.2538 14.1996 22.95L14.1996 14.6998L22.4504 14.6998C22.7542 14.6998 23.0004 14.4536 23.0004 14.1498V10.8498C23.0004 10.5461 22.7542 10.2998 22.4504 10.2998L14.1996 10.2998L14.1996 2.05Z" fill="#202020"/>
</svg>
