<svg width="279" height="46" viewBox="0 0 279 46" fill="none" xmlns="http://www.w3.org/2000/svg">
<path d="M15.1744 20.907L20.8415 0.5L23.5343 19.3167L35.6518 12.9965L28.9199 24.7339L42.907 26.0883L28.2558 31.3721L34.3054 45.5L20.8415 36.0301L11.7044 45.5L12.7632 33.3112L0 32.4186L10.0704 26.0882L0 11.4884L15.1744 20.907Z" fill="#A6A6A6"/>
<path d="M70.523 34V29.872H58.459V11.6H53.595V34H70.523ZM77.8525 34.512C80.5085 34.512 82.1405 32.592 82.9085 30.32H84.8605C83.9965 31.568 83.3565 32.912 83.3245 34H87.5485V18H83.0045V25.904C83.0045 28.56 82.1405 30.736 79.8045 30.736C78.3325 30.736 77.4045 29.872 77.4045 27.728V18H72.8605V28.784C72.8605 32.272 74.8125 34.512 77.8525 34.512ZM96.5028 40.24V37.264C96.5028 33.456 95.6068 31.952 94.8068 30.704H96.7268C97.4308 32.336 98.7428 34.48 102.039 34.48C105.943 34.48 108.631 31.056 108.631 26C108.631 20.944 105.943 17.488 102.039 17.488C98.6468 17.488 97.4628 19.664 96.6628 21.264H94.7428C95.3828 20.336 96.0868 19.12 96.0868 18H91.9588V40.24H96.5028ZM100.119 31.056C97.8468 31.056 96.3108 29.392 96.3108 26C96.3108 22.608 97.8788 20.944 100.119 20.944C102.231 20.944 103.863 22.256 103.863 26C103.863 29.744 102.231 31.056 100.119 31.056ZM119.093 34.512C123.957 34.512 125.973 31.888 126.869 29.84L122.805 28.272C122.133 29.776 121.141 31.056 119.093 31.056C117.141 31.056 115.637 29.904 115.509 27.088H126.805C127.253 21.744 124.437 17.52 119.061 17.52C114.421 17.52 110.965 20.944 110.965 25.968C110.965 31.216 114.165 34.512 119.093 34.512ZM115.669 23.888C115.989 21.872 117.237 20.784 119.061 20.784C120.981 20.784 122.133 21.904 122.325 23.888H115.669ZM143.147 34V26.128H148.363C153.131 26.128 156.427 23.28 156.427 18.832C156.427 14.384 153.131 11.6 148.331 11.6H138.283V34H143.147ZM143.147 15.632H147.467C149.771 15.632 151.371 16.848 151.371 18.832C151.371 20.912 149.771 22.096 147.467 22.096H143.147V15.632ZM163.588 34.512C166.34 34.512 167.844 32.752 168.484 30.672H169.988C170.052 33.04 170.66 34 173.476 34H175.364V30.544H173.956C173.092 30.544 172.996 30.384 172.996 29.584V23.728C172.996 19.504 170.34 17.52 165.86 17.52C161.188 17.52 158.532 19.92 158.276 22.416L162.372 23.312C162.756 21.808 163.812 20.784 165.892 20.784C167.716 20.784 168.516 21.616 168.516 22.992V23.6C163.204 24.112 158.468 25.424 158.468 29.904C158.468 32.72 160.644 34.512 163.588 34.512ZM165.156 31.184C163.78 31.184 163.076 30.512 163.076 29.456C163.076 27.344 165.572 26.768 168.516 26.416V27.44C168.516 30.032 166.916 31.184 165.156 31.184ZM182.315 34V26.416C182.315 24.72 182.347 21.264 185.515 21.264C187.083 21.264 188.075 22.16 188.075 24.272V34H192.619V23.408C192.619 19.856 190.699 17.52 187.179 17.52C184.619 17.52 183.019 19.408 182.283 21.68H180.299C181.163 20.432 181.835 19.056 181.867 18H177.771V34H182.315ZM201.505 15.824V11.536H196.673V15.824H201.505ZM201.377 34V18H196.833V34H201.377ZM209.932 34.512C212.684 34.512 214.188 32.752 214.828 30.672H216.332C216.396 33.04 217.004 34 219.82 34H221.708V30.544H220.3C219.436 30.544 219.34 30.384 219.34 29.584V23.728C219.34 19.504 216.684 17.52 212.204 17.52C207.532 17.52 204.876 19.92 204.62 22.416L208.716 23.312C209.1 21.808 210.156 20.784 212.236 20.784C214.06 20.784 214.86 21.616 214.86 22.992V23.6C209.548 24.112 204.812 25.424 204.812 29.904C204.812 32.72 206.988 34.512 209.932 34.512ZM211.5 31.184C210.124 31.184 209.42 30.512 209.42 29.456C209.42 27.344 211.916 26.768 214.86 26.416V27.44C214.86 30.032 213.26 31.184 211.5 31.184ZM234.963 40.24C238.099 40.24 240.531 38.512 240.531 35.28C240.531 32.688 238.387 30.448 234.963 30.448H228.083C227.155 30.448 226.483 30.448 226.483 29.744C226.483 29.232 226.803 28.88 227.699 28.624C228.659 29.04 229.843 29.168 231.027 29.168C234.771 29.168 237.555 27.056 237.939 23.6L237.971 23.312C238.163 21.68 238.419 21.456 239.411 21.456H241.171V18H240.339C238.803 18 238.067 18.544 237.811 20.88H236.435C235.603 18.544 233.203 17.52 230.579 17.52C226.835 17.52 223.923 19.92 223.923 23.28C223.923 24.912 224.627 25.808 225.747 26.608V28.048C224.371 28.496 223.123 29.328 223.123 31.056C223.123 32.208 223.923 32.912 224.947 33.2V34.672C223.795 35.024 222.739 35.952 222.739 37.232C222.739 38.768 223.699 40.24 226.739 40.24H234.963ZM230.995 26.192C229.299 26.192 228.179 25.104 228.179 23.472C228.179 21.808 229.299 20.592 230.995 20.592C232.691 20.592 233.811 21.808 233.811 23.472C233.811 25.104 232.691 26.192 230.995 26.192ZM227.827 36.944C226.963 36.944 226.227 36.464 226.227 35.44C226.227 34.8 226.675 34.224 227.059 34H234.067C235.571 34 236.051 34.704 236.051 35.44C236.051 36.336 235.571 36.944 234.067 36.944H227.827ZM248.603 34.512C251.259 34.512 252.891 32.592 253.659 30.32H255.611C254.747 31.568 254.107 32.912 254.075 34H258.299V18H253.755V25.904C253.755 28.56 252.891 30.736 250.555 30.736C249.083 30.736 248.155 29.872 248.155 27.728V18H243.611V28.784C243.611 32.272 245.563 34.512 248.603 34.512ZM266.901 34.512C269.653 34.512 271.157 32.752 271.797 30.672H273.301C273.365 33.04 273.973 34 276.789 34H278.677V30.544H277.269C276.405 30.544 276.309 30.384 276.309 29.584V23.728C276.309 19.504 273.653 17.52 269.173 17.52C264.501 17.52 261.845 19.92 261.589 22.416L265.685 23.312C266.069 21.808 267.125 20.784 269.205 20.784C271.029 20.784 271.829 21.616 271.829 22.992V23.6C266.517 24.112 261.781 25.424 261.781 29.904C261.781 32.72 263.957 34.512 266.901 34.512ZM268.469 31.184C267.093 31.184 266.389 30.512 266.389 29.456C266.389 27.344 268.885 26.768 271.829 26.416V27.44C271.829 30.032 270.229 31.184 268.469 31.184Z" fill="#A6A6A6"/>
</svg>
