<svg width="36" height="37" viewBox="0 0 36 37" fill="none" xmlns="http://www.w3.org/2000/svg">
<g filter="url(#filter0_d_1250_15)">
<path d="M0.5 5.16667C0.5 2.86548 2.88224 1 5.20435 1H29.5182C31.8403 1 33.5 2.86548 33.5 5.16667V26.8333C33.5 29.1345 31.8403 31 29.5182 31H5.20435C2.88224 31 0.5 29.1345 0.5 26.8333V5.16667Z" fill="white"/>
<path d="M0.5 9.52307H33.3328M5.20435 31H29.5182C31.8403 31 33.5 29.1345 33.5 26.8333V5.16667C33.5 2.86548 31.8403 1 29.5182 1H5.20435C2.88224 1 0.5 2.86548 0.5 5.16667V26.8333C0.5 29.1345 2.88224 31 5.20435 31Z" stroke="#2A3139" stroke-linecap="round"/>
</g>
<path d="M7 13.4675H8.86619C9.14234 13.4675 9.36619 13.6914 9.36619 13.9675V15.7765C9.36619 16.0526 9.14234 16.2765 8.86619 16.2765H7C6.72386 16.2765 6.5 16.0526 6.5 15.7765V13.9675C6.5 13.6914 6.72386 13.4675 7 13.4675ZM15.5669 13.4675H17.4331C17.7092 13.4675 17.9331 13.6914 17.9331 13.9675V15.7765C17.9331 16.0526 17.7092 16.2765 17.4331 16.2765H15.5669C15.2908 16.2765 15.0669 16.0526 15.0669 15.7765V13.9675C15.0669 13.6914 15.2908 13.4675 15.5669 13.4675ZM24.1338 13.4675H26C26.2761 13.4675 26.5 13.6914 26.5 13.9675V15.7765C26.5 16.0526 26.2761 16.2765 26 16.2765H24.1338C23.8577 16.2765 23.6338 16.0526 23.6338 15.7765V13.9675C23.6338 13.6914 23.8577 13.4675 24.1338 13.4675ZM7 20.6288H8.86619C9.14234 20.6288 9.36619 20.8527 9.36619 21.1288V22.9378C9.36619 23.2139 9.14234 23.4378 8.86619 23.4378H7C6.72386 23.4378 6.5 23.2139 6.5 22.9378V21.1288C6.5 20.8527 6.72386 20.6288 7 20.6288ZM15.5669 20.6288H17.4331C17.7092 20.6288 17.9331 20.8527 17.9331 21.1288V22.9378C17.9331 23.2139 17.7092 23.4378 17.4331 23.4378H15.5669C15.2908 23.4378 15.0669 23.2139 15.0669 22.9378V21.1288C15.0669 20.8527 15.2908 20.6288 15.5669 20.6288Z" fill="#2A3139" stroke="#2A3139"/>
<mask id="path-4-inside-1_1250_15" fill="white">
<path d="M32.9814 30.5176C32.9876 30.5176 32.9938 30.5171 33 30.5171H32.9632C26.5007 30.4923 26.4998 24.0352 26.4998 24.0352C26.4998 24.0352 26.4993 30.4923 20.0368 30.5171H20C20.0062 30.5171 20.0124 30.5176 20.0186 30.5176C20.0124 30.5176 20.0062 30.518 20 30.518H20.0368C26.4993 30.5428 26.4998 37 26.4998 37C26.4998 37 26.5002 30.5428 32.9627 30.518H32.9995C32.9938 30.5176 32.9876 30.5176 32.9814 30.5176Z"/>
</mask>
<path d="M32.9814 30.5176C32.9876 30.5176 32.9938 30.5171 33 30.5171H32.9632C26.5007 30.4923 26.4998 24.0352 26.4998 24.0352C26.4998 24.0352 26.4993 30.4923 20.0368 30.5171H20C20.0062 30.5171 20.0124 30.5176 20.0186 30.5176C20.0124 30.5176 20.0062 30.518 20 30.518H20.0368C26.4993 30.5428 26.4998 37 26.4998 37C26.4998 37 26.5002 30.5428 32.9627 30.518H32.9995C32.9938 30.5176 32.9876 30.5176 32.9814 30.5176Z" fill="white"/>
<path d="M33 30.5171L33.4474 30.7403L33.8188 29.996L32.9872 30.0172L33 30.5171ZM32.9632 30.5171L32.9763 30.0173L32.6588 30.0089L32.5163 30.2928L32.9632 30.5171ZM20.0368 30.5171H20.5368V30.004L20.0238 30.0173L20.0368 30.5171ZM20 30.5171L20.0128 30.0172L19.5 30.0041V30.5171H20ZM20 30.518H19.5V31.031L20.0128 31.0179L20 30.518ZM20.0368 30.518L20.0238 31.0179L20.5368 31.0312V30.518H20.0368ZM32.9627 30.518L32.5158 30.2938L32.1418 31.0392L32.9755 31.0179L32.9627 30.518ZM32.9995 30.518L32.9864 31.0179L33.3048 31.0262L33.4469 30.7413L32.9995 30.518ZM32.9942 31.0174L33.0128 31.0169L32.9872 30.0172L32.9686 30.0177L32.9942 31.0174ZM32.9945 30.0177L32.9763 30.0173L32.9501 31.0169L32.9682 31.0174L32.9945 30.0177ZM32.9686 30.0177L32.95 30.0182L32.9755 31.0179L32.9941 31.0174L32.9686 30.0177ZM32.9683 31.0174L32.9864 31.0179L33.0126 30.0182L32.9945 30.0177L32.9683 31.0174ZM32.9872 30.0172L32.9499 30.0182L32.9755 31.0179L33.0128 31.0169L32.9872 30.0172ZM32.5526 30.2939L32.5521 30.2948L33.4469 30.7413L33.4474 30.7403L32.5526 30.2939ZM32.5163 30.2928L32.5158 30.2938L33.4096 30.7423L33.4101 30.7413L32.5163 30.2928ZM32.9501 31.0169L32.9864 31.0179L33.0126 30.0182L32.9763 30.0173L32.9501 31.0169ZM20.0237 30.0173L20.0055 30.0177L20.0318 31.0174L20.0499 31.0169L20.0237 30.0173ZM20.0238 30.0173L19.987 30.0182L20.013 31.0179L20.0497 31.0169L20.0238 30.0173ZM19.5368 30.5171V30.518H20.5368V30.5171H19.5368ZM19.9872 31.0169L20.0058 31.0174L20.0314 30.0177L20.0128 30.0172L19.9872 31.0169ZM19.5 30.5171V30.518H20.5V30.5171H19.5ZM19.987 31.0169L20.0238 31.0179L20.0497 30.0182L20.013 30.0173L19.987 31.0169ZM20.0059 30.0177L19.9872 30.0182L20.0128 31.0179L20.0314 31.0174L20.0059 30.0177ZM20.0055 31.0174L20.0237 31.0179L20.0499 30.0182L20.0318 30.0177L20.0055 31.0174ZM32.9632 30.5171L32.9594 31.5171H32.9632V30.5171ZM26.4998 24.0352L27.4998 24.035L25.4998 24.0351L26.4998 24.0352ZM20.0368 30.5171L20.0368 31.5171L20.0406 31.5171L20.0368 30.5171ZM20.0368 30.518L20.0406 29.518H20.0368V30.518ZM26.4998 37L25.4998 37L27.4998 37L26.4998 37ZM32.9627 30.518L32.9627 29.518L32.9589 29.518L32.9627 30.518ZM32.9995 30.518V31.518L33.0823 29.5215L32.9995 30.518ZM32.9814 31.5176C32.9955 31.5176 33.0071 31.5173 33.0148 31.5171C33.0187 31.517 33.022 31.5168 33.0243 31.5168C33.0265 31.5167 33.0285 31.5166 33.0291 31.5166C33.03 31.5165 33.0296 31.5166 33.029 31.5166C33.0282 31.5166 33.0265 31.5167 33.0241 31.5167C33.0196 31.5169 33.011 31.5171 33 31.5171V29.5171C32.9859 29.5171 32.9742 29.5174 32.9665 29.5176C32.9626 29.5177 32.9593 29.5178 32.957 29.5179C32.9549 29.518 32.9529 29.518 32.9523 29.5181C32.9513 29.5181 32.9517 29.5181 32.9524 29.5181C32.9531 29.518 32.9549 29.518 32.9572 29.5179C32.9618 29.5178 32.9704 29.5176 32.9814 29.5176V31.5176ZM33 29.5171H32.9632V31.5171H33V29.5171ZM32.967 29.5171C31.5263 29.5116 30.5114 29.1506 29.7835 28.663C29.0493 28.1712 28.5475 27.5103 28.2026 26.8199C27.8558 26.1257 27.6774 25.4201 27.5873 24.8799C27.5426 24.6121 27.5206 24.3912 27.5099 24.2412C27.5045 24.1664 27.502 24.1097 27.5008 24.0742C27.5002 24.0565 27.4999 24.0441 27.4998 24.0374C27.4998 24.0341 27.4998 24.0322 27.4998 24.0317C27.4998 24.0315 27.4998 24.0317 27.4998 24.0322C27.4998 24.0325 27.4998 24.0329 27.4998 24.0333C27.4998 24.0336 27.4998 24.034 27.4998 24.0341C27.4998 24.0345 27.4998 24.035 26.4998 24.0352C25.4998 24.0353 25.4998 24.0358 25.4998 24.0364C25.4998 24.0366 25.4998 24.0371 25.4998 24.0376C25.4998 24.0384 25.4998 24.0394 25.4998 24.0404C25.4998 24.0425 25.4998 24.045 25.4998 24.0479C25.4999 24.0537 25.5 24.0611 25.5001 24.07C25.5004 24.0877 25.5009 24.1116 25.5019 24.1412C25.5039 24.2003 25.5077 24.2823 25.515 24.3841C25.5295 24.5873 25.5581 24.8711 25.6145 25.209C25.7265 25.8803 25.9523 26.7906 26.4135 27.7138C26.8766 28.6408 27.5868 29.5988 28.6704 30.3246C29.7602 31.0547 31.1689 31.5102 32.9594 31.5171L32.967 29.5171ZM26.4998 24.0352C25.4998 24.0351 25.4998 24.0346 25.4998 24.0342C25.4998 24.0341 25.4998 24.0336 25.4998 24.0334C25.4998 24.033 25.4998 24.0326 25.4998 24.0323C25.4998 24.0318 25.4998 24.0316 25.4998 24.0318C25.4998 24.0322 25.4997 24.0341 25.4997 24.0375C25.4996 24.0441 25.4993 24.0565 25.4987 24.0743C25.4976 24.1098 25.495 24.1665 25.4897 24.2413C25.4789 24.3913 25.457 24.6122 25.4123 24.88C25.3222 25.4202 25.1439 26.1257 24.7971 26.8199C24.4523 27.5103 23.9505 28.1712 23.2164 28.663C22.4886 29.1506 21.4737 29.5116 20.033 29.5171L20.0406 31.5171C21.8311 31.5102 23.2398 31.0547 24.3296 30.3246C25.4131 29.5987 26.1232 28.6407 26.5863 27.7137C27.0475 26.7905 27.2731 25.8802 27.3851 25.209C27.4415 24.871 27.47 24.5872 27.4846 24.384C27.4919 24.2822 27.4956 24.2002 27.4976 24.1411C27.4986 24.1115 27.4991 24.0877 27.4994 24.0699C27.4996 24.061 27.4997 24.0536 27.4997 24.0479C27.4997 24.045 27.4997 24.0425 27.4998 24.0403C27.4998 24.0393 27.4998 24.0383 27.4998 24.0375C27.4998 24.0371 27.4998 24.0365 27.4998 24.0363C27.4998 24.0357 27.4998 24.0352 26.4998 24.0352ZM20.0368 29.5171H20V31.5171H20.0368V29.5171ZM20 31.5171C19.989 31.5171 19.9804 31.5169 19.9759 31.5167C19.9735 31.5167 19.9718 31.5166 19.971 31.5166C19.9704 31.5166 19.97 31.5165 19.9709 31.5166C19.9715 31.5166 19.9735 31.5167 19.9757 31.5168C19.978 31.5168 19.9813 31.517 19.9852 31.5171C19.9929 31.5173 20.0045 31.5176 20.0186 31.5176V29.5176C20.0296 29.5176 20.0382 29.5178 20.0428 29.5179C20.0451 29.518 20.0469 29.518 20.0476 29.5181C20.0482 29.5181 20.0487 29.5181 20.0477 29.5181C20.0471 29.518 20.0451 29.518 20.043 29.5179C20.0407 29.5178 20.0374 29.5177 20.0334 29.5176C20.0258 29.5174 20.0141 29.5171 20 29.5171V31.5171ZM20.0186 29.5176C20.0046 29.5176 19.9929 29.5178 19.9852 29.518C19.9813 29.5182 19.978 29.5183 19.9757 29.5184C19.9735 29.5184 19.9716 29.5185 19.971 29.5185C19.97 29.5186 19.9704 29.5186 19.9711 29.5185C19.9718 29.5185 19.9736 29.5184 19.9759 29.5184C19.9805 29.5182 19.989 29.518 20 29.518V31.518C20.0141 31.518 20.0257 31.5178 20.0334 31.5175C20.0373 31.5174 20.0406 31.5173 20.0429 31.5172C20.0451 31.5172 20.0471 31.5171 20.0476 31.5171C20.0486 31.517 20.0482 31.517 20.0476 31.5171C20.0468 31.5171 20.0451 31.5172 20.0427 31.5172C20.0382 31.5174 20.0296 31.5176 20.0186 31.5176V29.5176ZM20 31.518H20.0368V29.518H20V31.518ZM20.033 31.518C21.4737 31.5236 22.4886 31.8845 23.2164 32.3721C23.9505 32.8639 24.4523 33.5248 24.7971 34.2152C25.1439 34.9094 25.3222 35.6149 25.4123 36.1551C25.457 36.4229 25.4789 36.6438 25.4897 36.7938C25.495 36.8687 25.4976 36.9254 25.4987 36.9609C25.4993 36.9786 25.4996 36.991 25.4997 36.9977C25.4997 37.001 25.4998 37.0029 25.4998 37.0033C25.4998 37.0035 25.4998 37.0033 25.4998 37.0028C25.4998 37.0025 25.4998 37.0022 25.4998 37.0017C25.4998 37.0015 25.4998 37.0011 25.4998 37.0009C25.4998 37.0005 25.4998 37 26.4998 37C27.4998 36.9999 27.4998 36.9994 27.4998 36.9988C27.4998 36.9986 27.4998 36.9981 27.4998 36.9976C27.4998 36.9968 27.4998 36.9958 27.4998 36.9948C27.4997 36.9927 27.4997 36.9902 27.4997 36.9873C27.4997 36.9815 27.4996 36.9741 27.4994 36.9652C27.4991 36.9475 27.4986 36.9236 27.4976 36.894C27.4956 36.8349 27.4919 36.7529 27.4846 36.6511C27.47 36.4479 27.4415 36.1641 27.3851 35.8261C27.2731 35.1549 27.0475 34.2446 26.5863 33.3214C26.1232 32.3944 25.4131 31.4364 24.3296 30.7105C23.2398 29.9804 21.8311 29.5249 20.0406 29.518L20.033 31.518ZM26.4998 37C27.4998 37 27.4998 37.0005 27.4998 37.0009C27.4998 37.0011 27.4998 37.0015 27.4998 37.0017C27.4998 37.0022 27.4998 37.0025 27.4998 37.0028C27.4998 37.0033 27.4998 37.0035 27.4998 37.0033C27.4998 37.0029 27.4998 37.001 27.4998 36.9977C27.4999 36.991 27.5002 36.9786 27.5008 36.9609C27.502 36.9254 27.5045 36.8687 27.5099 36.7938C27.5206 36.6438 27.5425 36.4229 27.5872 36.1551C27.6773 35.6149 27.8556 34.9094 28.2024 34.2152C28.5473 33.5248 29.049 32.8639 29.7831 32.3721C30.511 31.8845 31.5258 31.5236 32.9666 31.518L32.9589 29.518C31.1684 29.5249 29.7598 29.9804 28.67 30.7105C27.5864 31.4364 26.8763 32.3944 26.4132 33.3214C25.9521 34.2446 25.7264 35.1549 25.6144 35.8261C25.5581 36.1641 25.5295 36.4479 25.515 36.6511C25.5077 36.7529 25.5039 36.8349 25.5019 36.894C25.5009 36.9236 25.5004 36.9475 25.5001 36.9652C25.4999 36.9741 25.4999 36.9815 25.4998 36.9873C25.4998 36.9902 25.4998 36.9927 25.4998 36.9948C25.4998 36.9958 25.4998 36.9968 25.4998 36.9976C25.4998 36.9981 25.4998 36.9986 25.4998 36.9988C25.4998 36.9994 25.4998 36.9999 26.4998 37ZM32.9627 31.518H32.9995V29.518H32.9627V31.518ZM33.0823 29.5215C33.051 29.5189 33.0253 29.5181 33.0102 29.5178C32.9957 29.5175 32.9827 29.5176 32.9814 29.5176V31.5176C32.9863 31.5176 32.9795 31.5176 32.9711 31.5174C32.962 31.5173 32.9423 31.5167 32.9167 31.5146L33.0823 29.5215Z" fill="#2A3139" mask="url(#path-4-inside-1_1250_15)"/>
<defs>
<filter id="filter0_d_1250_15" x="0" y="0.5" width="36" height="33" filterUnits="userSpaceOnUse" color-interpolation-filters="sRGB">
<feFlood flood-opacity="0" result="BackgroundImageFix"/>
<feColorMatrix in="SourceAlpha" type="matrix" values="0 0 0 0 0 0 0 0 0 0 0 0 0 0 0 0 0 0 127 0" result="hardAlpha"/>
<feOffset dx="2" dy="2"/>
<feComposite in2="hardAlpha" operator="out"/>
<feColorMatrix type="matrix" values="0 0 0 0 0.164706 0 0 0 0 0.192157 0 0 0 0 0.223529 0 0 0 1 0"/>
<feBlend mode="normal" in2="BackgroundImageFix" result="effect1_dropShadow_1250_15"/>
<feBlend mode="normal" in="SourceGraphic" in2="effect1_dropShadow_1250_15" result="shape"/>
</filter>
</defs>
</svg>
