<svg width="37" height="38" viewBox="0 0 37 38" fill="none" xmlns="http://www.w3.org/2000/svg">
<g filter="url(#filter0_d)">
<path d="M1 5.20455C1 2.88244 2.88244 1 5.20455 1H29.5184C31.8405 1 33.723 2.88244 33.723 5.20455V27.0682C33.723 29.3903 31.8405 31.2727 29.5184 31.2727H5.20454C2.88244 31.2727 1 29.3903 1 27.0682V5.20455Z" fill="white"/>
<path d="M1.26812 9.87304H33.4546M5.20454 31.2727H29.5184C31.8405 31.2727 33.723 29.3903 33.723 27.0682V5.20455C33.723 2.88244 31.8405 1 29.5184 1H5.20455C2.88244 1 1 2.88244 1 5.20455V27.0682C1 29.3903 2.88244 31.2727 5.20454 31.2727Z" stroke="#2A3139" stroke-linecap="round"/>
</g>
<path d="M7.13281 14.2657C7.13281 13.9895 7.35667 13.7657 7.63281 13.7657H9.62736C9.9035 13.7657 10.1274 13.9895 10.1274 14.2657V16.1522C10.1274 16.4284 9.9035 16.6522 9.62736 16.6522H7.63281C7.35667 16.6522 7.13281 16.4284 7.13281 16.1522V14.2657ZM15.9841 14.2657C15.9841 13.9895 16.208 13.7657 16.4841 13.7657H18.4787C18.7548 13.7657 18.9787 13.9895 18.9787 14.2657V16.1522C18.9787 16.4284 18.7548 16.6522 18.4787 16.6522H16.4841C16.208 16.6522 15.9841 16.4284 15.9841 16.1522V14.2657ZM24.8354 14.2657C24.8354 13.9895 25.0593 13.7657 25.3354 13.7657H27.33C27.6061 13.7657 27.83 13.9895 27.83 14.2657V16.1522C27.83 16.4284 27.6061 16.6522 27.33 16.6522H25.3354C25.0593 16.6522 24.8354 16.4284 24.8354 16.1522V14.2657ZM7.13281 21.5729C7.13281 21.2967 7.35667 21.0729 7.63281 21.0729H9.62736C9.9035 21.0729 10.1274 21.2967 10.1274 21.5729V23.4595C10.1274 23.7356 9.9035 23.9595 9.62736 23.9595H7.63281C7.35667 23.9595 7.13281 23.7356 7.13281 23.4595V21.5729ZM15.9841 21.5729C15.9841 21.2967 16.208 21.0729 16.4841 21.0729H18.4787C18.7548 21.0729 18.9787 21.2967 18.9787 21.5729V23.4595C18.9787 23.7356 18.7548 23.9595 18.4787 23.9595H16.4841C16.208 23.9595 15.9841 23.7356 15.9841 23.4595V21.5729Z" fill="#2A3139" stroke="#2A3139"/>
<path d="M26.8603 33.8093C26.7176 34.0956 26.5988 34.3812 26.4998 34.6583C26.4007 34.3812 26.2819 34.0956 26.1393 33.8093C25.7059 32.9394 25.048 32.0534 24.0518 31.3842C23.7005 31.1482 23.3108 30.9417 22.879 30.7727C23.3108 30.6038 23.7005 30.3973 24.0518 30.1613C25.048 29.4921 25.7059 28.6061 26.1393 27.7361C26.2819 27.4498 26.4008 27.1641 26.4999 26.8869C26.5989 27.1641 26.7178 27.4498 26.8605 27.7362C27.294 28.6061 27.9519 29.4921 28.9481 30.1613C29.2994 30.3972 29.6891 30.6037 30.1207 30.7726C29.6889 30.9416 29.2991 31.1482 28.9477 31.3842C27.9515 32.0534 27.2937 32.9394 26.8603 33.8093Z" fill="white" stroke="#2A3139"/>
<defs>
<filter id="filter0_d" x="0.5" y="0.5" width="35.7229" height="33.2727" filterUnits="userSpaceOnUse" color-interpolation-filters="sRGB">
<feFlood flood-opacity="0" result="BackgroundImageFix"/>
<feColorMatrix in="SourceAlpha" type="matrix" values="0 0 0 0 0 0 0 0 0 0 0 0 0 0 0 0 0 0 127 0" result="hardAlpha"/>
<feOffset dx="2" dy="2"/>
<feComposite in2="hardAlpha" operator="out"/>
<feColorMatrix type="matrix" values="0 0 0 0 0.164706 0 0 0 0 0.192157 0 0 0 0 0.223529 0 0 0 1 0"/>
<feBlend mode="normal" in2="BackgroundImageFix" result="effect1_dropShadow"/>
<feBlend mode="normal" in="SourceGraphic" in2="effect1_dropShadow" result="shape"/>
</filter>
</defs>
</svg>
