<svg width="43" height="39" viewBox="0 0 43 39" fill="none" xmlns="http://www.w3.org/2000/svg">
<g filter="url(#filter0_d)">
<path d="M1.00282 7.7473C1.00282 7.03418 1.58091 6.45609 2.29403 6.45609H38.7064C39.4195 6.45609 39.9976 7.03418 39.9976 7.7473V30.9892C39.9976 31.7023 39.4195 32.2804 38.7064 32.2804H2.29403C1.58091 32.2804 1.00282 31.7023 1.00282 30.9892V7.7473Z" fill="white"/>
<path d="M19.7636 21.4391C20.2065 21.7467 20.7939 21.7467 21.2368 21.4391L39.443 8.80781C40.4818 8.08624 39.9712 6.45609 38.7064 6.45609H2.29365C1.02879 6.45609 0.518196 8.08624 1.55704 8.8078L19.7636 21.4391Z" fill="white"/>
<path d="M38.7064 6.45609H2.29403C1.58091 6.45609 1.00282 7.03418 1.00282 7.7473V30.9892C1.00282 31.7023 1.58091 32.2804 2.29403 32.2804H38.7064C39.4195 32.2804 39.9976 31.7023 39.9976 30.9892V7.7473C39.9976 7.03418 39.4195 6.45609 38.7064 6.45609ZM38.7064 6.45609H2.29365C1.02879 6.45609 0.518196 8.08624 1.55704 8.8078L19.7636 21.4391C20.2065 21.7467 20.7939 21.7467 21.2368 21.4391L39.443 8.80781C40.4818 8.08624 39.9712 6.45609 38.7064 6.45609ZM1.5193 31.7639L16.2392 19.6265M39.4811 31.7639L24.7612 19.6265" stroke="#2A3139" stroke-linecap="round"/>
</g>
<path d="M11.3159 35.2306C11.1686 35.5264 11.0463 35.8214 10.9448 36.1073C10.8433 35.8214 10.7211 35.5264 10.5737 35.2306C10.135 34.3501 9.46922 33.4534 8.46113 32.7762C8.10139 32.5346 7.7018 32.3234 7.2586 32.1513C7.7018 31.9792 8.10139 31.768 8.46113 31.5264C9.46922 30.8492 10.135 29.9526 10.5737 29.072C10.7211 28.7761 10.8434 28.481 10.9449 28.195C11.0465 28.4811 11.1688 28.7761 11.3162 29.072C11.7549 29.9526 12.4208 30.8492 13.429 31.5264C13.7886 31.768 14.1882 31.9791 14.6313 32.1512C14.188 32.3233 13.7883 32.5345 13.4285 32.7762C12.4204 33.4534 11.7546 34.3501 11.3159 35.2306Z" fill="white" stroke="#2A3139"/>
<path d="M32.7503 9.66454C32.6029 9.96031 32.4807 10.2553 32.3792 10.5412C32.2777 10.2553 32.1554 9.96031 32.0081 9.66454C31.5694 8.78396 30.9036 7.8873 29.8955 7.21013C29.5357 6.96848 29.1361 6.75731 28.6929 6.58521C29.1361 6.41311 29.5357 6.20194 29.8955 5.96029C30.9036 5.28312 31.5694 4.38646 32.0081 3.50588C32.1554 3.21002 32.2777 2.91495 32.3792 2.62893C32.4808 2.91496 32.6031 3.21004 32.7505 3.5059C33.1893 4.38648 33.8551 5.28313 34.8633 5.9603C35.223 6.2019 35.6225 6.41304 36.0656 6.58512C35.6223 6.75724 35.2227 6.96844 34.8629 7.21013C33.8548 7.8873 33.1889 8.78396 32.7503 9.66454Z" fill="white" stroke="#2A3139"/>
<defs>
<filter id="filter0_d" x="0.499023" y="5.95609" width="42.002" height="28.8243" filterUnits="userSpaceOnUse" color-interpolation-filters="sRGB">
<feFlood flood-opacity="0" result="BackgroundImageFix"/>
<feColorMatrix in="SourceAlpha" type="matrix" values="0 0 0 0 0 0 0 0 0 0 0 0 0 0 0 0 0 0 127 0" result="hardAlpha"/>
<feOffset dx="2" dy="2"/>
<feComposite in2="hardAlpha" operator="out"/>
<feColorMatrix type="matrix" values="0 0 0 0 0.164706 0 0 0 0 0.192157 0 0 0 0 0.223529 0 0 0 1 0"/>
<feBlend mode="normal" in2="BackgroundImageFix" result="effect1_dropShadow"/>
<feBlend mode="normal" in="SourceGraphic" in2="effect1_dropShadow" result="shape"/>
</filter>
</defs>
</svg>
