<svg width="44" height="39" viewBox="0 0 44 39" fill="none" xmlns="http://www.w3.org/2000/svg">
<g filter="url(#filter0_d_1250_6)">
<path d="M1.5 7.70956C1.5 7.01803 2.0748 6.5 2.7789 6.5L39.2224 6.5C39.9265 6.5 40.5 7.01803 40.5 7.70956V30.2479C40.5 30.9394 40.4204 31.5 39.7163 31.5H3.76486C3.06076 31.5 1.5 30.9394 1.5 30.2479V7.70956Z" fill="white"/>
<path d="M20.5194 20.9868C20.9567 21.2852 21.5367 21.2852 21.9739 20.9868L39.9497 8.73797C40.9754 8.03825 40.4713 6.5 39.2224 6.5L2.7789 6.5C1.53005 6.5 1.02554 8.03825 2.05124 8.73796L20.5194 20.9868Z" fill="white"/>
<path d="M39.2224 6.5L2.7789 6.5M39.2224 6.5C39.9265 6.5 40.5 7.01803 40.5 7.70956V30.2479C40.5 30.9394 40.4204 31.5 39.7163 31.5H3.76486C3.06076 31.5 1.5 30.9394 1.5 30.2479V7.70956C1.5 7.01803 2.0748 6.5 2.7789 6.5M39.2224 6.5C40.4713 6.5 40.9754 8.03825 39.9497 8.73797L21.9739 20.9868C21.5367 21.2852 20.9567 21.2852 20.5194 20.9868L2.05124 8.73796C1.02554 8.03825 1.53005 6.5 2.7789 6.5M2.99993 30.9992L17.5335 19.2291M40 31L25.1962 19.2291" stroke="#2A3139" stroke-linecap="round"/>
</g>
<mask id="path-3-inside-1_1250_6" fill="white">
<path d="M19.0114 32.1514C19.0177 32.1514 19.024 32.1509 19.0303 32.1509H18.993C12.4458 32.1257 12.4448 25.5662 12.4448 25.5662C12.4448 25.5662 12.4443 32.1257 5.89714 32.1509H5.85986C5.86616 32.1509 5.87245 32.1514 5.87874 32.1514C5.87245 32.1514 5.86616 32.1519 5.85986 32.1519H5.89714C12.4443 32.177 12.4448 38.7366 12.4448 38.7366C12.4448 38.7366 12.4453 32.177 18.9925 32.1519H19.0298C19.024 32.1514 19.0177 32.1514 19.0114 32.1514Z"/>
</mask>
<path d="M19.0114 32.1514C19.0177 32.1514 19.024 32.1509 19.0303 32.1509H18.993C12.4458 32.1257 12.4448 25.5662 12.4448 25.5662C12.4448 25.5662 12.4443 32.1257 5.89714 32.1509H5.85986C5.86616 32.1509 5.87245 32.1514 5.87874 32.1514C5.87245 32.1514 5.86616 32.1519 5.85986 32.1519H5.89714C12.4443 32.177 12.4448 38.7366 12.4448 38.7366C12.4448 38.7366 12.4453 32.177 18.9925 32.1519H19.0298C19.024 32.1514 19.0177 32.1514 19.0114 32.1514Z" fill="white"/>
<path d="M19.0303 32.1509L19.4778 32.3739L19.8486 31.6297L19.0175 31.6511L19.0303 32.1509ZM18.993 32.1509L19.0062 31.6511L18.688 31.6427L18.5457 31.9274L18.993 32.1509ZM5.89714 32.1509H6.39714V31.6377L5.88415 31.6511L5.89714 32.1509ZM5.85986 32.1509L5.87269 31.6511L5.35986 31.6379V32.1509H5.85986ZM5.85986 32.1519H5.35986V32.6648L5.87268 32.6517L5.85986 32.1519ZM5.89714 32.1519L5.88415 32.6517L6.39714 32.665V32.1519H5.89714ZM18.9925 32.1519L18.5452 31.9284L18.1732 32.673L19.0053 32.6517L18.9925 32.1519ZM19.0298 32.1519L19.0166 32.6517L19.3352 32.6601L19.4773 32.3748L19.0298 32.1519ZM19.0242 32.6512L19.0431 32.6507L19.0175 31.6511L18.9986 31.6515L19.0242 32.6512ZM19.0246 31.6515L19.0062 31.6511L18.9798 32.6507L18.9982 32.6512L19.0246 31.6515ZM18.9986 31.6515L18.9797 31.652L19.0053 32.6517L19.0242 32.6512L18.9986 31.6515ZM18.9983 32.6512L19.0166 32.6517L19.043 31.652L19.0246 31.6515L18.9983 32.6512ZM19.0175 31.6511L18.9797 31.652L19.0053 32.6517L19.0431 32.6507L19.0175 31.6511ZM18.5828 31.9279L18.5823 31.9289L19.4773 32.3748L19.4778 32.3739L18.5828 31.9279ZM18.5457 31.9274L18.5452 31.9284L19.4398 32.3753L19.4403 32.3744L18.5457 31.9274ZM18.9798 32.6507L19.0166 32.6517L19.043 31.652L19.0062 31.6511L18.9798 32.6507ZM5.88397 31.6511L5.86558 31.6515L5.89191 32.6512L5.91031 32.6507L5.88397 31.6511ZM5.88415 31.6511L5.84687 31.652L5.87285 32.6517L5.91013 32.6507L5.88415 31.6511ZM5.39714 32.1509V32.1519H6.39714V32.1509H5.39714ZM5.84703 32.6507L5.86591 32.6512L5.89158 31.6515L5.87269 31.6511L5.84703 32.6507ZM5.35986 32.1509V32.1519H6.35986V32.1509H5.35986ZM5.84687 32.6507L5.88415 32.6517L5.91013 31.652L5.87285 31.6511L5.84687 32.6507ZM5.86593 31.6515L5.84705 31.652L5.87268 32.6517L5.89156 32.6512L5.86593 31.6515ZM5.86559 32.6512L5.88399 32.6517L5.91029 31.652L5.89189 31.6515L5.86559 32.6512ZM18.993 32.1509L18.9892 33.1509H18.993V32.1509ZM12.4448 25.5662L13.4448 25.566L11.4448 25.5661L12.4448 25.5662ZM5.89714 32.1509L5.89714 33.1509L5.90099 33.1509L5.89714 32.1509ZM5.89714 32.1519L5.90099 31.1519H5.89714V32.1519ZM12.4448 38.7366L11.4448 38.7367L13.4448 38.7367L12.4448 38.7366ZM18.9925 32.1519L18.9925 31.1518L18.9887 31.1519L18.9925 32.1519ZM19.0298 32.1519V33.1519L19.1128 31.1553L19.0298 32.1519ZM19.0114 33.1514C19.0255 33.1514 19.0373 33.1511 19.045 33.1509C19.0489 33.1508 19.0522 33.1507 19.0546 33.1506C19.0568 33.1505 19.0587 33.1504 19.0593 33.1504C19.0603 33.1504 19.0599 33.1504 19.0593 33.1504C19.0585 33.1504 19.0568 33.1505 19.0544 33.1505C19.0499 33.1507 19.0413 33.1509 19.0303 33.1509V31.1509C19.0161 31.1509 19.0044 31.1512 18.9967 31.1514C18.9928 31.1515 18.9894 31.1516 18.9871 31.1517C18.9849 31.1518 18.9829 31.1518 18.9824 31.1519C18.9814 31.1519 18.9818 31.1519 18.9824 31.1519C18.9832 31.1518 18.9849 31.1518 18.9873 31.1517C18.9918 31.1516 19.0004 31.1514 19.0114 31.1514V33.1514ZM19.0303 31.1509H18.993V33.1509H19.0303V31.1509ZM18.9969 31.1509C17.5355 31.1453 16.5051 30.7782 15.7653 30.2813C15.0192 29.7801 14.5092 29.1065 14.1588 28.4031C13.8064 27.6959 13.6252 26.9774 13.5337 26.4273C13.4884 26.1547 13.466 25.9297 13.4551 25.7768C13.4497 25.7006 13.4471 25.6427 13.4459 25.6064C13.4453 25.5883 13.445 25.5756 13.4449 25.5687C13.4448 25.5653 13.4448 25.5633 13.4448 25.5628C13.4448 25.5626 13.4448 25.5628 13.4448 25.5633C13.4448 25.5635 13.4448 25.5639 13.4448 25.5644C13.4448 25.5646 13.4448 25.565 13.4448 25.5651C13.4448 25.5656 13.4448 25.566 12.4448 25.5662C11.4448 25.5663 11.4448 25.5668 11.4448 25.5674C11.4448 25.5676 11.4448 25.5681 11.4448 25.5686C11.4448 25.5694 11.4448 25.5704 11.4448 25.5714C11.4449 25.5735 11.4449 25.5761 11.4449 25.579C11.4449 25.5848 11.445 25.5922 11.4452 25.6012C11.4455 25.6192 11.446 25.6433 11.447 25.6732C11.449 25.733 11.4528 25.8162 11.4602 25.9193C11.4749 26.1252 11.5038 26.4129 11.5608 26.7556C11.6741 27.4363 11.9024 28.3592 12.3687 29.295C12.8368 30.2347 13.5547 31.2057 14.6502 31.9415C15.752 32.6816 17.177 33.1439 18.9892 33.1509L18.9969 31.1509ZM12.4448 25.5662C11.4448 25.5661 11.4448 25.5656 11.4448 25.5652C11.4448 25.5651 11.4448 25.5647 11.4448 25.5644C11.4448 25.564 11.4448 25.5636 11.4448 25.5634C11.4448 25.5628 11.4448 25.5627 11.4448 25.5629C11.4448 25.5634 11.4448 25.5654 11.4448 25.5688C11.4446 25.5757 11.4444 25.5884 11.4438 25.6065C11.4426 25.6428 11.44 25.7006 11.4346 25.7769C11.4237 25.9298 11.4014 26.1548 11.356 26.4274C11.2645 26.9774 11.0834 27.696 10.7311 28.4032C10.3807 29.1066 9.87075 29.7802 9.12471 30.2813C8.38503 30.7782 7.35469 31.1453 5.8933 31.1509L5.90099 33.1509C7.7132 33.1439 9.13812 32.6816 10.2399 31.9415C11.3354 31.2057 12.0532 30.2346 12.5213 29.295C12.9875 28.3592 13.2157 27.4362 13.3289 26.7556C13.3859 26.4129 13.4148 26.1252 13.4295 25.9192C13.4368 25.8161 13.4407 25.733 13.4427 25.6732C13.4437 25.6432 13.4442 25.6191 13.4445 25.6011C13.4446 25.5922 13.4447 25.5847 13.4448 25.5789C13.4448 25.576 13.4448 25.5735 13.4448 25.5714C13.4448 25.5703 13.4448 25.5693 13.4448 25.5685C13.4448 25.5681 13.4448 25.5675 13.4448 25.5673C13.4448 25.5667 13.4448 25.5662 12.4448 25.5662ZM5.89714 31.1509H5.85986V33.1509H5.89714V31.1509ZM5.85986 33.1509C5.84887 33.1509 5.84028 33.1507 5.83572 33.1505C5.83336 33.1505 5.83161 33.1504 5.83087 33.1504C5.83025 33.1504 5.82984 33.1504 5.83083 33.1504C5.83141 33.1504 5.8334 33.1505 5.83559 33.1506C5.83791 33.1507 5.84123 33.1508 5.84516 33.1509C5.85287 33.1511 5.8646 33.1514 5.87874 33.1514V31.1514C5.88974 31.1514 5.89832 31.1516 5.90289 31.1517C5.90524 31.1518 5.90699 31.1518 5.90774 31.1519C5.90835 31.1519 5.90877 31.1519 5.90778 31.1519C5.90719 31.1518 5.90521 31.1518 5.90302 31.1517C5.9007 31.1516 5.89738 31.1515 5.89345 31.1514C5.88574 31.1512 5.87401 31.1509 5.85986 31.1509V33.1509ZM5.87874 31.1514C5.86462 31.1514 5.8529 31.1516 5.8452 31.1519C5.84128 31.152 5.83796 31.1521 5.83564 31.1522C5.83345 31.1523 5.83147 31.1523 5.83088 31.1524C5.82989 31.1524 5.83031 31.1524 5.83092 31.1524C5.83166 31.1523 5.83341 31.1523 5.83576 31.1522C5.84032 31.1521 5.84889 31.1519 5.85986 31.1519V33.1519C5.87399 33.1519 5.8857 33.1516 5.89341 33.1514C5.89733 33.1513 5.90065 33.1511 5.90297 33.1511C5.90515 33.151 5.90714 33.1509 5.90773 33.1509C5.90871 33.1508 5.9083 33.1509 5.90769 33.1509C5.90694 33.1509 5.9052 33.151 5.90285 33.151C5.89829 33.1512 5.88972 33.1514 5.87874 33.1514V31.1514ZM5.85986 33.1519H5.89714V31.1519H5.85986V33.1519ZM5.8933 33.1518C7.35469 33.1575 8.38503 33.5246 9.12471 34.0214C9.87075 34.5226 10.3807 35.1962 10.7311 35.8996C11.0834 36.6068 11.2645 37.3253 11.356 37.8753C11.4014 38.148 11.4237 38.373 11.4346 38.5258C11.44 38.6021 11.4426 38.6599 11.4438 38.6962C11.4444 38.7144 11.4446 38.7271 11.4448 38.7339C11.4448 38.7374 11.4448 38.7394 11.4448 38.7398C11.4448 38.7401 11.4448 38.7399 11.4448 38.7394C11.4448 38.7391 11.4448 38.7388 11.4448 38.7383C11.4448 38.7381 11.4448 38.7377 11.4448 38.7376C11.4448 38.7371 11.4448 38.7367 12.4448 38.7366C13.4448 38.7365 13.4448 38.736 13.4448 38.7355C13.4448 38.7352 13.4448 38.7347 13.4448 38.7343C13.4448 38.7334 13.4448 38.7324 13.4448 38.7314C13.4448 38.7293 13.4448 38.7267 13.4448 38.7238C13.4447 38.718 13.4446 38.7106 13.4445 38.7016C13.4442 38.6836 13.4437 38.6595 13.4427 38.6296C13.4407 38.5698 13.4368 38.4866 13.4295 38.3835C13.4148 38.1776 13.3859 37.8899 13.3289 37.5472C13.2157 36.8665 12.9875 35.9436 12.5213 35.0078C12.0532 34.0681 11.3354 33.0971 10.2399 32.3612C9.13812 31.6211 7.7132 31.1588 5.90099 31.1519L5.8933 33.1518ZM12.4448 38.7366C13.4448 38.7367 13.4448 38.7371 13.4448 38.7376C13.4448 38.7377 13.4448 38.7381 13.4448 38.7383C13.4448 38.7388 13.4448 38.7391 13.4448 38.7394C13.4448 38.7399 13.4448 38.7401 13.4448 38.7398C13.4448 38.7394 13.4448 38.7374 13.4449 38.7339C13.445 38.7271 13.4453 38.7144 13.4459 38.6962C13.4471 38.6599 13.4497 38.6021 13.4551 38.5258C13.466 38.373 13.4883 38.148 13.5337 37.8753C13.6251 37.3253 13.8062 36.6068 14.1586 35.8996C14.509 35.1962 15.0189 34.5226 15.765 34.0214C16.5046 33.5246 17.535 33.1575 18.9964 33.1518L18.9887 31.1519C17.1765 31.1588 15.7515 31.6211 14.6497 32.3612C13.5543 33.0971 12.8365 34.0681 12.3684 35.0078C11.9022 35.9436 11.674 36.8665 11.5608 37.5472C11.5038 37.8899 11.4749 38.1776 11.4602 38.3835C11.4528 38.4866 11.449 38.5698 11.447 38.6296C11.446 38.6595 11.4455 38.6837 11.4452 38.7016C11.445 38.7106 11.4449 38.718 11.4449 38.7238C11.4449 38.7267 11.4449 38.7293 11.4448 38.7314C11.4448 38.7324 11.4448 38.7334 11.4448 38.7343C11.4448 38.7347 11.4448 38.7352 11.4448 38.7355C11.4448 38.736 11.4448 38.7365 12.4448 38.7366ZM18.9925 33.1519H19.0298V31.1519H18.9925V33.1519ZM19.1128 31.1553C19.0814 31.1527 19.0556 31.1519 19.0404 31.1516C19.0258 31.1513 19.0128 31.1514 19.0114 31.1514V33.1514C19.0163 33.1514 19.0096 33.1514 19.0012 33.1512C18.9921 33.1511 18.9724 33.1505 18.9468 33.1484L19.1128 31.1553Z" fill="#2A3139" mask="url(#path-3-inside-1_1250_6)"/>
<mask id="path-5-inside-2_1250_6" fill="white">
<path d="M40.4455 6.58521C40.4518 6.58521 40.4581 6.58473 40.4644 6.58473H40.4271C33.8799 6.55955 33.8789 0 33.8789 0C33.8789 0 33.8784 6.55955 27.3312 6.58473H27.2939C27.3002 6.58473 27.3065 6.58521 27.3128 6.58521C27.3065 6.58521 27.3002 6.58569 27.2939 6.58569H27.3312C33.8784 6.61087 33.8789 13.1704 33.8789 13.1704C33.8789 13.1704 33.8794 6.61087 40.4266 6.58569H40.4639C40.4581 6.58521 40.4518 6.58521 40.4455 6.58521Z"/>
</mask>
<path d="M40.4455 6.58521C40.4518 6.58521 40.4581 6.58473 40.4644 6.58473H40.4271C33.8799 6.55955 33.8789 0 33.8789 0C33.8789 0 33.8784 6.55955 27.3312 6.58473H27.2939C27.3002 6.58473 27.3065 6.58521 27.3128 6.58521C27.3065 6.58521 27.3002 6.58569 27.2939 6.58569H27.3312C33.8784 6.61087 33.8789 13.1704 33.8789 13.1704C33.8789 13.1704 33.8794 6.61087 40.4266 6.58569H40.4639C40.4581 6.58521 40.4518 6.58521 40.4455 6.58521Z" fill="white"/>
<path d="M40.4644 6.58473L40.9119 6.8077L41.2827 6.06357L40.4515 6.08489L40.4644 6.58473ZM40.4271 6.58473L40.4402 6.0849L40.1221 6.07652L39.9798 6.36124L40.4271 6.58473ZM27.3312 6.58473H27.8312V6.07156L27.3182 6.08489L27.3312 6.58473ZM27.2939 6.58473L27.3068 6.08489L26.7939 6.07172V6.58473H27.2939ZM27.2939 6.58569H26.7939V7.09868L27.3068 7.08553L27.2939 6.58569ZM27.3312 6.58569L27.3182 7.08552L27.8312 7.09886V6.58569H27.3312ZM40.4266 6.58569L39.9793 6.36221L39.6073 7.10686L40.4394 7.08553L40.4266 6.58569ZM40.4639 6.58569L40.4507 7.08552L40.7693 7.0939L40.9114 6.80867L40.4639 6.58569ZM40.4583 7.08504L40.4772 7.08456L40.4515 6.08489L40.4327 6.08537L40.4583 7.08504ZM40.4587 6.08538L40.4403 6.0849L40.4139 7.08455L40.4323 7.08504L40.4587 6.08538ZM40.4327 6.08537L40.4138 6.08586L40.4394 7.08553L40.4583 7.08505L40.4327 6.08537ZM40.4323 7.08504L40.4507 7.08552L40.477 6.08587L40.4586 6.08538L40.4323 7.08504ZM40.4515 6.08489L40.4138 6.08586L40.4394 7.08553L40.4772 7.08456L40.4515 6.08489ZM40.0168 6.36175L40.0164 6.36272L40.9114 6.80867L40.9119 6.8077L40.0168 6.36175ZM39.9798 6.36124L39.9793 6.36221L40.8739 6.80917L40.8744 6.80821L39.9798 6.36124ZM40.4139 7.08455L40.4507 7.08552L40.477 6.08587L40.4402 6.0849L40.4139 7.08455ZM27.3181 6.0849L27.2997 6.08538L27.326 7.08504L27.3444 7.08455L27.3181 6.0849ZM27.3182 6.08489L27.281 6.08586L27.3069 7.08552L27.3442 7.08456L27.3182 6.08489ZM26.8312 6.58473V6.58569H27.8312V6.58473H26.8312ZM27.2811 7.08456L27.3 7.08505L27.3257 6.08537L27.3068 6.08489L27.2811 7.08456ZM26.7939 6.58473V6.58569H27.7939V6.58473H26.7939ZM27.281 7.08456L27.3182 7.08552L27.3442 6.08586L27.3069 6.08489L27.281 7.08456ZM27.3 6.08537L27.2811 6.08586L27.3068 7.08553L27.3256 7.08505L27.3 6.08537ZM27.2997 7.08504L27.3181 7.08552L27.3444 6.08587L27.326 6.08538L27.2997 7.08504ZM40.4271 6.58473L40.4232 7.58473H40.4271V6.58473ZM33.8789 0L34.8789 -0.000147467L32.8789 -7.37621e-05L33.8789 0ZM27.3312 6.58473L27.3312 7.58473L27.3351 7.58472L27.3312 6.58473ZM27.3312 6.58569L27.3351 5.58569H27.3312V6.58569ZM33.8789 13.1704L32.8789 13.1705L34.8789 13.1705L33.8789 13.1704ZM40.4266 6.58569L40.4266 5.58569L40.4228 5.5857L40.4266 6.58569ZM40.4639 6.58569V7.58569L40.5469 5.58915L40.4639 6.58569ZM40.4455 7.58521C40.4596 7.58521 40.4714 7.58494 40.4791 7.58472C40.483 7.5846 40.4863 7.58449 40.4886 7.58441C40.4908 7.58433 40.4928 7.58425 40.4934 7.58423C40.4944 7.58419 40.494 7.58421 40.4934 7.58423C40.4926 7.58425 40.4909 7.58432 40.4885 7.58438C40.4839 7.58452 40.4754 7.58473 40.4644 7.58473V5.58473C40.4502 5.58473 40.4385 5.58499 40.4308 5.58522C40.4268 5.58533 40.4235 5.58545 40.4212 5.58553C40.419 5.58561 40.417 5.58569 40.4164 5.58571C40.4155 5.58575 40.4159 5.58573 40.4165 5.58571C40.4172 5.58568 40.419 5.58562 40.4213 5.58555C40.4259 5.58542 40.4345 5.58521 40.4455 5.58521V7.58521ZM40.4644 5.58473H40.4271V7.58473H40.4644V5.58473ZM40.4309 5.58473C38.9695 5.57911 37.9392 5.21201 37.1994 4.71513C36.4533 4.21397 35.9433 3.54035 35.5929 2.83696C35.2405 2.12975 35.0593 1.41122 34.9678 0.861186C34.9224 0.588521 34.9001 0.363553 34.8892 0.210664C34.8838 0.134388 34.8812 0.0765592 34.88 0.0402778C34.8794 0.0221521 34.8791 0.00945454 34.879 0.00257483C34.8789 -0.000863435 34.8789 -0.0028427 34.8789 -0.00331412C34.8789 -0.00354966 34.8789 -0.00340769 34.8789 -0.00288213C34.8789 -0.00261932 34.8789 -0.00226055 34.8789 -0.00180505C34.8789 -0.00157772 34.8789 -0.00116237 34.8789 -0.00104912C34.8789 -0.000610758 34.8789 -0.000147467 33.8789 0C32.8789 0.000147467 32.8789 0.000660804 32.8789 0.00119907C32.8789 0.00141221 32.8789 0.0019773 32.8789 0.00240403C32.8789 0.00325834 32.8789 0.00421453 32.8789 0.00527182C32.8789 0.00738635 32.8789 0.00990552 32.879 0.0128229C32.879 0.0186574 32.8791 0.0260871 32.8792 0.0350608C32.8795 0.0530052 32.8801 0.0771441 32.8811 0.107068C32.8831 0.166886 32.8869 0.25001 32.8943 0.353145C32.909 0.55908 32.9379 0.846774 32.9949 1.18946C33.1082 1.87013 33.3365 2.79306 33.8027 3.72888C34.2709 4.66853 34.9888 5.63952 36.0842 6.37536C37.1861 7.11547 38.611 7.57775 40.4232 7.58472L40.4309 5.58473ZM33.8789 0C32.8789 -7.37621e-05 32.8789 -0.000537053 32.8789 -0.000975419C32.8789 -0.00108867 32.8789 -0.00150402 32.8789 -0.00173135C32.8789 -0.00218685 32.8789 -0.00254562 32.8789 -0.00280842C32.8789 -0.00333399 32.8789 -0.00347596 32.8789 -0.00324043C32.8789 -0.00276901 32.8789 -0.000789753 32.8788 0.00264851C32.8787 0.00952819 32.8785 0.0222257 32.8779 0.0403514C32.8767 0.0766327 32.8741 0.134462 32.8686 0.210737C32.8577 0.363626 32.8354 0.588593 32.7901 0.861256C32.6986 1.41129 32.5175 2.12981 32.1652 2.83701C31.8148 3.54039 31.3048 4.214 30.5588 4.71514C29.8191 5.21201 28.7888 5.57911 27.3274 5.58473L27.3351 7.58472C29.1473 7.57775 30.5722 7.11547 31.674 6.37534C32.7695 5.63949 33.4872 4.66848 33.9553 3.72883C34.4216 2.793 34.6498 1.87006 34.763 1.18939C34.82 0.846702 34.8489 0.559007 34.8636 0.353072C34.8709 0.249936 34.8748 0.166813 34.8768 0.106995C34.8778 0.0770705 34.8783 0.0529315 34.8786 0.0349872C34.8787 0.0260134 34.8788 0.0185837 34.8789 0.0127492C34.8789 0.00983182 34.8789 0.00731265 34.8789 0.00519812C34.8789 0.00414083 34.8789 0.00318463 34.8789 0.00233033C34.8789 0.0019036 34.8789 0.0013385 34.8789 0.00112536C34.8789 0.000587099 34.8789 7.37621e-05 33.8789 0ZM27.3312 5.58473H27.2939V7.58473H27.3312V5.58473ZM27.2939 7.58473C27.283 7.58473 27.2744 7.58452 27.2698 7.58438C27.2674 7.58432 27.2657 7.58425 27.2649 7.58423C27.2643 7.58421 27.2639 7.58419 27.2649 7.58423C27.2655 7.58425 27.2675 7.58433 27.2697 7.58441C27.272 7.58449 27.2753 7.5846 27.2792 7.58472C27.287 7.58494 27.2987 7.58521 27.3128 7.58521V5.58521C27.3238 5.58521 27.3324 5.58542 27.337 5.58555C27.3393 5.58562 27.3411 5.58568 27.3418 5.58571C27.3424 5.58573 27.3429 5.58575 27.3419 5.58571C27.3413 5.58569 27.3393 5.58561 27.3371 5.58553C27.3348 5.58545 27.3315 5.58533 27.3275 5.58522C27.3198 5.58499 27.3081 5.58473 27.2939 5.58473V7.58473ZM27.3128 5.58521C27.2987 5.58521 27.287 5.58548 27.2793 5.5857C27.2754 5.58581 27.272 5.58593 27.2697 5.58601C27.2675 5.58609 27.2655 5.58617 27.265 5.58619C27.264 5.58623 27.2644 5.58621 27.265 5.58619C27.2657 5.58616 27.2675 5.5861 27.2698 5.58603C27.2744 5.5859 27.283 5.58569 27.2939 5.58569V7.58569C27.3081 7.58569 27.3198 7.58542 27.3275 7.5852C27.3314 7.58509 27.3347 7.58498 27.3371 7.58489C27.3392 7.58481 27.3412 7.58474 27.3418 7.58471C27.3428 7.58468 27.3424 7.58469 27.3418 7.58471C27.341 7.58474 27.3393 7.5848 27.3369 7.58487C27.3324 7.585 27.3238 7.58521 27.3128 7.58521V5.58521ZM27.2939 7.58569H27.3312V5.58569H27.2939V7.58569ZM27.3274 7.58569C28.7888 7.59131 29.8191 7.95841 30.5588 8.45528C31.3048 8.95642 31.8148 9.63003 32.1652 10.3334C32.5175 11.0406 32.6986 11.7591 32.7901 12.3092C32.8354 12.5818 32.8577 12.8068 32.8686 12.9597C32.8741 13.036 32.8767 13.0938 32.8779 13.1301C32.8785 13.1482 32.8787 13.1609 32.8788 13.1678C32.8789 13.1712 32.8789 13.1732 32.8789 13.1737C32.8789 13.1739 32.8789 13.1738 32.8789 13.1732C32.8789 13.173 32.8789 13.1726 32.8789 13.1722C32.8789 13.1719 32.8789 13.1715 32.8789 13.1714C32.8789 13.171 32.8789 13.1705 33.8789 13.1704C34.8789 13.1703 34.8789 13.1698 34.8789 13.1693C34.8789 13.1691 34.8789 13.1685 34.8789 13.1681C34.8789 13.1672 34.8789 13.1663 34.8789 13.1652C34.8789 13.1631 34.8789 13.1606 34.8789 13.1577C34.8788 13.1518 34.8787 13.1444 34.8786 13.1354C34.8783 13.1175 34.8778 13.0933 34.8768 13.0634C34.8748 13.0036 34.8709 12.9205 34.8636 12.8173C34.8489 12.6114 34.82 12.3237 34.763 11.981C34.6498 11.3004 34.4216 10.3774 33.9553 9.44159C33.4872 8.50193 32.7695 7.53093 31.674 6.79507C30.5722 6.05495 29.1473 5.59267 27.3351 5.5857L27.3274 7.58569ZM33.8789 13.1704C34.8789 13.1705 34.8789 13.171 34.8789 13.1714C34.8789 13.1715 34.8789 13.1719 34.8789 13.1722C34.8789 13.1726 34.8789 13.173 34.8789 13.1732C34.8789 13.1738 34.8789 13.1739 34.8789 13.1737C34.8789 13.1732 34.8789 13.1712 34.879 13.1678C34.8791 13.1609 34.8794 13.1482 34.88 13.1301C34.8812 13.0938 34.8837 13.036 34.8892 12.9597C34.9001 12.8068 34.9224 12.5818 34.9677 12.3092C35.0592 11.7591 35.2403 11.0406 35.5926 10.3334C35.943 9.63003 36.453 8.95642 37.199 8.45528C37.9387 7.95841 38.9691 7.59131 40.4304 7.58569L40.4228 5.5857C38.6105 5.59267 37.1856 6.05495 36.0838 6.79507C34.9884 7.53093 34.2706 8.50193 33.8025 9.44159C33.3363 10.3774 33.108 11.3004 32.9948 11.981C32.9378 12.3237 32.909 12.6114 32.8943 12.8173C32.8869 12.9205 32.8831 13.0036 32.8811 13.0634C32.8801 13.0933 32.8795 13.1175 32.8792 13.1354C32.8791 13.1444 32.879 13.1518 32.879 13.1577C32.8789 13.1606 32.8789 13.1631 32.8789 13.1652C32.8789 13.1663 32.8789 13.1672 32.8789 13.1681C32.8789 13.1685 32.8789 13.1691 32.8789 13.1693C32.8789 13.1698 32.8789 13.1703 33.8789 13.1704ZM40.4266 7.58569H40.4639V5.58569H40.4266V7.58569ZM40.5469 5.58915C40.5155 5.58653 40.4897 5.58576 40.4745 5.58546C40.4599 5.58518 40.4468 5.58521 40.4455 5.58521V7.58521C40.4504 7.58521 40.4437 7.58524 40.4353 7.58508C40.4262 7.5849 40.4065 7.58437 40.3808 7.58224L40.5469 5.58915Z" fill="#2A3139" mask="url(#path-5-inside-2_1250_6)"/>
<defs>
<filter id="filter0_d_1250_6" x="0.996582" y="6" width="42.0078" height="28" filterUnits="userSpaceOnUse" color-interpolation-filters="sRGB">
<feFlood flood-opacity="0" result="BackgroundImageFix"/>
<feColorMatrix in="SourceAlpha" type="matrix" values="0 0 0 0 0 0 0 0 0 0 0 0 0 0 0 0 0 0 127 0" result="hardAlpha"/>
<feOffset dx="2" dy="2"/>
<feComposite in2="hardAlpha" operator="out"/>
<feColorMatrix type="matrix" values="0 0 0 0 0.164706 0 0 0 0 0.192157 0 0 0 0 0.223529 0 0 0 1 0"/>
<feBlend mode="normal" in2="BackgroundImageFix" result="effect1_dropShadow_1250_6"/>
<feBlend mode="normal" in="SourceGraphic" in2="effect1_dropShadow_1250_6" result="shape"/>
</filter>
</defs>
</svg>
