<svg width="37" height="41" viewBox="0 0 37 41" fill="none" xmlns="http://www.w3.org/2000/svg">
<g filter="url(#filter0_d)">
<path d="M1 11.259C1 8.88106 2.89838 6.9534 5.24014 6.9534H29.7599C32.1016 6.9534 34 8.88106 34 11.259V33.6478C34 36.0257 32.1016 37.9534 29.7599 37.9534H5.24014C2.89837 37.9534 1 36.0257 1 33.6478V11.259Z" fill="white"/>
<path d="M5.24014 6.4534C2.61504 6.4534 0.5 8.61216 0.5 11.259V33.6478C0.5 36.2946 2.61504 38.4534 5.24014 38.4534H29.7599C32.385 38.4534 34.5 36.2946 34.5 33.6478V11.259C34.5 8.61216 32.385 6.4534 29.7599 6.4534H5.24014Z" stroke="#2A3139" stroke-linecap="round"/>
</g>
<path d="M21 18.9534C22.5913 18.9534 24.1174 19.5855 25.2426 20.7108C26.3679 21.836 27 23.3621 27 24.9534V31.9534H23V24.9534C23 24.423 22.7893 23.9143 22.4142 23.5392C22.0391 23.1641 21.5304 22.9534 21 22.9534C20.4696 22.9534 19.9609 23.1641 19.5858 23.5392C19.2107 23.9143 19 24.423 19 24.9534V31.9534H15V24.9534C15 23.3621 15.6321 21.836 16.7574 20.7108C17.8826 19.5855 19.4087 18.9534 21 18.9534Z" fill="#2A3139" stroke="#2A3139" stroke-linecap="round" stroke-linejoin="round"/>
<path d="M11 19.9534H7V31.9534H11V19.9534Z" fill="#2A3139" stroke="#2A3139" stroke-linecap="round" stroke-linejoin="round"/>
<path d="M9 16.9534C10.1046 16.9534 11 16.058 11 14.9534C11 13.8488 10.1046 12.9534 9 12.9534C7.89543 12.9534 7 13.8488 7 14.9534C7 16.058 7.89543 16.9534 9 16.9534Z" fill="#2A3139" stroke="#2A3139" stroke-linecap="round" stroke-linejoin="round"/>
<path d="M26.1374 9.5366C25.9947 9.82289 25.8759 10.1084 25.7769 10.3856C25.6778 10.1084 25.559 9.82289 25.4164 9.5366C24.983 8.66665 24.3251 7.78063 23.3289 7.11146C22.9776 6.87548 22.5879 6.66893 22.1561 6.5C22.5879 6.33107 22.9776 6.12452 23.3289 5.88854C24.3251 5.21937 24.983 4.33335 25.4164 3.4634C25.559 3.17702 25.6779 2.89139 25.777 2.61419C25.876 2.8914 25.9949 3.17704 26.1376 3.46342C26.5711 4.33337 27.229 5.21938 28.2252 5.88855C28.5765 6.12448 28.9662 6.331 29.3978 6.49991C28.966 6.66886 28.5762 6.87544 28.2248 7.11146C27.2286 7.78063 26.5708 8.66665 26.1374 9.5366Z" fill="white" stroke="#2A3139"/>
<defs>
<filter id="filter0_d" x="0" y="5.9534" width="37" height="35" filterUnits="userSpaceOnUse" color-interpolation-filters="sRGB">
<feFlood flood-opacity="0" result="BackgroundImageFix"/>
<feColorMatrix in="SourceAlpha" type="matrix" values="0 0 0 0 0 0 0 0 0 0 0 0 0 0 0 0 0 0 127 0" result="hardAlpha"/>
<feOffset dx="2" dy="2"/>
<feComposite in2="hardAlpha" operator="out"/>
<feColorMatrix type="matrix" values="0 0 0 0 0.164706 0 0 0 0 0.192157 0 0 0 0 0.223529 0 0 0 1 0"/>
<feBlend mode="normal" in2="BackgroundImageFix" result="effect1_dropShadow"/>
<feBlend mode="normal" in="SourceGraphic" in2="effect1_dropShadow" result="shape"/>
</filter>
</defs>
</svg>
