<svg width="37" height="41" viewBox="0 0 37 41" fill="none" xmlns="http://www.w3.org/2000/svg">
<g filter="url(#filter0_d_1250_19)">
<path d="M1 11.2589C1 8.88103 2.89846 6.95337 5.24022 6.95337H29.7599C32.1017 6.95337 34.0001 8.88103 34.0001 11.2589V33.6478C34.0001 36.0257 32.1017 38 29.7599 38H5.24022C2.89845 38 1 36.0257 1 33.6478V11.2589Z" fill="white"/>
<path d="M29.7599 6.45337H5.24022C2.61514 6.45337 0.5 8.61212 0.5 11.2589V33.6478C0.5 36.2875 2.60822 38.5 5.24022 38.5H29.7599C32.392 38.5 34.5001 36.2875 34.5001 33.6478V11.2589C34.5001 8.61213 32.385 6.45337 29.7599 6.45337Z" stroke="#2A3139" stroke-linecap="round"/>
</g>
<path d="M21 18.9534C22.5913 18.9534 24.1174 19.5855 25.2426 20.7107C26.3679 21.8359 27 23.3621 27 24.9534V31.9534H23V24.9534C23 24.4229 22.7893 23.9142 22.4142 23.5392C22.0391 23.1641 21.5304 22.9534 21 22.9534C20.4696 22.9534 19.9609 23.1641 19.5858 23.5392C19.2107 23.9142 19 24.4229 19 24.9534V31.9534H15V24.9534C15 23.3621 15.6321 21.8359 16.7574 20.7107C17.8826 19.5855 19.4087 18.9534 21 18.9534V18.9534Z" fill="#2A3139" stroke="#2A3139" stroke-linecap="round" stroke-linejoin="round"/>
<path d="M11 19.9534H7V31.9534H11V19.9534Z" fill="#2A3139" stroke="#2A3139" stroke-linecap="round" stroke-linejoin="round"/>
<path d="M9 16.9534C10.1046 16.9534 11 16.0579 11 14.9534C11 13.8488 10.1046 12.9534 9 12.9534C7.89543 12.9534 7 13.8488 7 14.9534C7 16.0579 7.89543 16.9534 9 16.9534Z" fill="#2A3139" stroke="#2A3139" stroke-linecap="round" stroke-linejoin="round"/>
<mask id="path-6-inside-1_1250_19" fill="white">
<path d="M32.2582 6.5C32.2644 6.5 32.2706 6.49952 32.2769 6.49952H32.2401C25.7776 6.47467 25.7766 0 25.7766 0C25.7766 0 25.7761 6.47467 19.3137 6.49952H19.2769C19.2831 6.49952 19.2893 6.5 19.2955 6.5C19.2893 6.5 19.2831 6.50048 19.2769 6.50048H19.3137C25.7761 6.52533 25.7766 13 25.7766 13C25.7766 13 25.7771 6.52533 32.2396 6.50048H32.2764C32.2706 6.5 32.2644 6.5 32.2582 6.5Z"/>
</mask>
<path d="M32.2582 6.5C32.2644 6.5 32.2706 6.49952 32.2769 6.49952H32.2401C25.7776 6.47467 25.7766 0 25.7766 0C25.7766 0 25.7761 6.47467 19.3137 6.49952H19.2769C19.2831 6.49952 19.2893 6.5 19.2955 6.5C19.2893 6.5 19.2831 6.50048 19.2769 6.50048H19.3137C25.7761 6.52533 25.7766 13 25.7766 13C25.7766 13 25.7771 6.52533 32.2396 6.50048H32.2764C32.2706 6.5 32.2644 6.5 32.2582 6.5Z" fill="white"/>
<path d="M32.2769 6.49952L32.7245 6.72226L33.0946 5.97838L32.264 5.99969L32.2769 6.49952ZM32.2401 6.49952L32.2532 5.99969L31.9353 5.99132L31.7929 6.27576L32.2401 6.49952ZM19.3137 6.49952H19.8137V5.98636L19.3007 5.99969L19.3137 6.49952ZM19.2769 6.49952L19.2897 5.99969L18.7769 5.98652V6.49952H19.2769ZM19.2769 6.50048H18.7769V7.01346L19.2897 7.00031L19.2769 6.50048ZM19.3137 6.50048L19.3007 7.00031L19.8137 7.01364V6.50048H19.3137ZM32.2396 6.50048L31.7924 6.27672L31.4197 7.02166L32.2524 7.00031L32.2396 6.50048ZM32.2764 6.50048L32.2632 7.0003L32.582 7.00869L32.724 6.72322L32.2764 6.50048ZM32.2711 6.99984L32.2897 6.99936L32.264 5.99969L32.2454 6.00016L32.2711 6.99984ZM32.2714 6.00017L32.2532 5.99969L32.2269 6.99935L32.2451 6.99983L32.2714 6.00017ZM32.2454 6.00016L32.2268 6.00064L32.2524 7.00031L32.271 6.99984L32.2454 6.00016ZM32.2451 6.99983L32.2632 7.0003L32.2895 6.00065L32.2714 6.00017L32.2451 6.99983ZM32.264 5.99969L32.2268 6.00064L32.2524 7.00031L32.2897 6.99936L32.264 5.99969ZM31.8292 6.27678L31.8287 6.27774L32.724 6.72322L32.7245 6.72226L31.8292 6.27678ZM31.7929 6.27576L31.7924 6.27672L32.6867 6.72424L32.6872 6.72328L31.7929 6.27576ZM32.2269 6.99935L32.2632 7.0003L32.2895 6.00065L32.2532 5.99969L32.2269 6.99935ZM19.3005 5.99969L19.2823 6.00017L19.3087 6.99983L19.3268 6.99935L19.3005 5.99969ZM19.3007 5.99969L19.2639 6.00065L19.2898 7.00031L19.3266 6.99935L19.3007 5.99969ZM18.8137 6.49952V6.50048H19.8137V6.49952H18.8137ZM19.264 6.99936L19.2827 6.99984L19.3083 6.00016L19.2897 5.99969L19.264 6.99936ZM18.7769 6.49952V6.50048H19.7769V6.49952H18.7769ZM19.2639 6.99935L19.3007 7.00031L19.3266 6.00065L19.2898 5.99969L19.2639 6.99935ZM19.2827 6.00016L19.264 6.00064L19.2897 7.00031L19.3083 6.99984L19.2827 6.00016ZM19.2823 6.99983L19.3005 7.0003L19.3268 6.00065L19.3086 6.00017L19.2823 6.99983ZM32.2401 6.49952L32.2362 7.49952H32.2401V6.49952ZM25.7766 0L26.7766 -0.000147494L24.7766 -7.37998e-05L25.7766 0ZM19.3137 6.49952L19.3137 7.49953L19.3175 7.49951L19.3137 6.49952ZM19.3137 6.50048L19.3175 5.50048H19.3137V6.50048ZM25.7766 13L24.7766 13.0001L26.7766 13.0001L25.7766 13ZM32.2396 6.50048L32.2396 5.50047L32.2357 5.50048L32.2396 6.50048ZM32.2764 6.50048V7.50048L32.3594 5.50393L32.2764 6.50048ZM32.2582 7.5C32.2723 7.5 32.2841 7.49973 32.2918 7.49951C32.2957 7.4994 32.299 7.49928 32.3013 7.4992C32.3035 7.49912 32.3054 7.49904 32.306 7.49902C32.307 7.49898 32.3066 7.499 32.306 7.49902C32.3052 7.49905 32.3034 7.49911 32.3011 7.49918C32.2965 7.49931 32.2879 7.49952 32.2769 7.49952V5.49952C32.2627 5.49952 32.251 5.49979 32.2433 5.50001C32.2394 5.50013 32.2361 5.50024 32.2338 5.50032C32.2316 5.5004 32.2296 5.50048 32.2291 5.5005C32.2281 5.50054 32.2285 5.50052 32.2291 5.5005C32.2299 5.50047 32.2316 5.50041 32.234 5.50034C32.2386 5.50021 32.2472 5.5 32.2582 5.5V7.5ZM32.2769 5.49952H32.2401V7.49952H32.2769V5.49952ZM32.2439 5.49953C30.8037 5.49399 29.7892 5.13225 29.0614 4.64337C28.3272 4.15022 27.8251 3.48724 27.48 2.79448C27.1329 2.0979 26.9544 1.38999 26.8642 0.847918C26.8195 0.579235 26.7975 0.357584 26.7867 0.207016C26.7814 0.131901 26.7788 0.0749842 26.7776 0.0393245C26.7771 0.0215097 26.7768 0.00905041 26.7767 0.00233131C26.7766 -0.00102665 26.7766 -0.00294505 26.7766 -0.00337567C26.7766 -0.0035908 26.7766 -0.00343346 26.7766 -0.00289761C26.7766 -0.00262967 26.7766 -0.00226703 26.7766 -0.00180895C26.7766 -0.00158033 26.7766 -0.00116401 26.7766 -0.00105012C26.7766 -0.000611108 26.7766 -0.000147494 25.7766 0C24.7766 0.000147494 24.7766 0.000660506 24.7766 0.00119812C24.7766 0.00141062 24.7766 0.00197475 24.7766 0.00240018C24.7766 0.00325191 24.7766 0.00420424 24.7766 0.00525638C24.7766 0.00736064 24.7767 0.00986442 24.7767 0.0127614C24.7767 0.0185551 24.7768 0.0259239 24.7769 0.0348174C24.7772 0.0526011 24.7778 0.0765017 24.7788 0.106115C24.7807 0.165311 24.7845 0.247523 24.7918 0.349498C24.8064 0.553111 24.8349 0.837488 24.8913 1.17619C25.0032 1.8489 25.2289 2.76121 25.6899 3.6864C26.1527 4.61542 26.8626 5.57577 27.9462 6.3036C29.0361 7.03571 30.4452 7.49263 32.2362 7.49951L32.2439 5.49953ZM25.7766 0C24.7766 -7.37998e-05 24.7766 -0.000537415 24.7766 -0.000976427C24.7766 -0.00109032 24.7766 -0.00150664 24.7766 -0.00173526C24.7766 -0.00219334 24.7766 -0.00255598 24.7766 -0.00282392C24.7766 -0.00335977 24.7766 -0.00351712 24.7766 -0.00330199C24.7766 -0.00287137 24.7766 -0.000952984 24.7765 0.00240497C24.7764 0.00912405 24.7762 0.0215833 24.7756 0.039398C24.7744 0.0750576 24.7719 0.131974 24.7665 0.20709C24.7558 0.357657 24.7338 0.579307 24.6891 0.847989C24.599 1.39006 24.4205 2.09796 24.0735 2.79453C23.7284 3.48728 23.2264 4.15025 22.4922 4.64338C21.7645 5.13225 20.75 5.49399 19.3098 5.49953L19.3175 7.49951C21.1085 7.49263 22.5176 7.03571 23.6075 6.30359C24.691 5.57574 25.4008 4.61537 25.8636 3.68635C26.3246 2.76115 26.5501 1.84883 26.662 1.17612C26.7183 0.837416 26.7469 0.553038 26.7614 0.349425C26.7687 0.247449 26.7725 0.165238 26.7745 0.106041C26.7755 0.0764281 26.776 0.0525275 26.7763 0.0347437C26.7764 0.0258502 26.7765 0.0184815 26.7766 0.0126878C26.7766 0.00979073 26.7766 0.00728695 26.7766 0.00518269C26.7766 0.00413054 26.7766 0.00317822 26.7766 0.00232649C26.7766 0.00190105 26.7766 0.00133693 26.7766 0.00112443C26.7766 0.000586813 26.7766 7.37998e-05 25.7766 0ZM19.3137 5.49952H19.2769V7.49952H19.3137V5.49952ZM19.2769 7.49952C19.2658 7.49952 19.2572 7.49931 19.2526 7.49918C19.2503 7.49911 19.2485 7.49905 19.2478 7.49902C19.2471 7.499 19.2467 7.49898 19.2477 7.49902C19.2483 7.49904 19.2502 7.49912 19.2524 7.4992C19.2547 7.49928 19.258 7.4994 19.262 7.49951C19.2697 7.49973 19.2814 7.5 19.2955 7.5V5.5C19.3065 5.5 19.3151 5.50021 19.3197 5.50034C19.3221 5.50041 19.3238 5.50047 19.3246 5.5005C19.3252 5.50052 19.3256 5.50054 19.3247 5.5005C19.3241 5.50048 19.3221 5.5004 19.3199 5.50032C19.3176 5.50024 19.3143 5.50013 19.3104 5.50001C19.3027 5.49979 19.291 5.49952 19.2769 5.49952V7.49952ZM19.2955 5.5C19.2814 5.5 19.2697 5.50027 19.262 5.50049C19.2581 5.5006 19.2548 5.50072 19.2525 5.5008C19.2503 5.50088 19.2483 5.50095 19.2477 5.50098C19.2468 5.50101 19.2472 5.501 19.2478 5.50098C19.2486 5.50095 19.2503 5.50089 19.2527 5.50082C19.2573 5.50069 19.2659 5.50048 19.2769 5.50048V7.50048C19.291 7.50048 19.3027 7.50021 19.3103 7.49999C19.3143 7.49987 19.3176 7.49976 19.3199 7.49968C19.322 7.4996 19.324 7.49952 19.3246 7.4995C19.3256 7.49946 19.3252 7.49948 19.3245 7.4995C19.3238 7.49953 19.322 7.49959 19.3197 7.49966C19.3151 7.49979 19.3065 7.5 19.2955 7.5V5.5ZM19.2769 7.50048H19.3137V5.50048H19.2769V7.50048ZM19.3098 7.50047C20.75 7.50601 21.7645 7.86775 22.4922 8.35661C23.2264 8.84975 23.7284 9.51272 24.0735 10.2055C24.4205 10.902 24.599 11.6099 24.6891 12.152C24.7338 12.4207 24.7558 12.6423 24.7665 12.7929C24.7719 12.868 24.7744 12.9249 24.7756 12.9606C24.7762 12.9784 24.7764 12.9909 24.7765 12.9976C24.7766 13.001 24.7766 13.0029 24.7766 13.0033C24.7766 13.0035 24.7766 13.0034 24.7766 13.0028C24.7766 13.0026 24.7766 13.0022 24.7766 13.0017C24.7766 13.0015 24.7766 13.0011 24.7766 13.001C24.7766 13.0005 24.7766 13.0001 25.7766 13C26.7766 12.9999 26.7766 12.9994 26.7766 12.9989C26.7766 12.9987 26.7766 12.9981 26.7766 12.9977C26.7766 12.9968 26.7766 12.9959 26.7766 12.9948C26.7766 12.9927 26.7766 12.9902 26.7766 12.9873C26.7765 12.9815 26.7764 12.9741 26.7763 12.9653C26.776 12.9475 26.7755 12.9236 26.7745 12.894C26.7725 12.8348 26.7687 12.7526 26.7614 12.6506C26.7469 12.447 26.7183 12.1626 26.662 11.8239C26.5501 11.1512 26.3246 10.2389 25.8636 9.31365C25.4008 8.38462 24.691 7.42426 23.6075 6.69641C22.5176 5.96428 21.1085 5.50737 19.3175 5.50048L19.3098 7.50047ZM25.7766 13C26.7766 13.0001 26.7766 13.0005 26.7766 13.001C26.7766 13.0011 26.7766 13.0015 26.7766 13.0017C26.7766 13.0022 26.7766 13.0026 26.7766 13.0028C26.7766 13.0034 26.7766 13.0035 26.7766 13.0033C26.7766 13.0029 26.7766 13.001 26.7767 12.9976C26.7768 12.9909 26.7771 12.9784 26.7776 12.9606C26.7788 12.9249 26.7814 12.868 26.7867 12.7929C26.7975 12.6423 26.8194 12.4207 26.8641 12.152C26.9543 11.6099 27.1327 10.902 27.4797 10.2055C27.8249 9.51272 28.3269 8.84975 29.061 8.35661C29.7888 7.86775 30.8032 7.50601 32.2434 7.50047L32.2357 5.50048C30.4447 5.50737 29.0357 5.96428 27.9458 6.69641C26.8622 7.42426 26.1524 8.38462 25.6896 9.31365C25.2287 10.2389 25.0031 11.1512 24.8912 11.8239C24.8349 12.1626 24.8063 12.447 24.7918 12.6506C24.7845 12.7526 24.7807 12.8348 24.7788 12.894C24.7778 12.9236 24.7772 12.9475 24.7769 12.9653C24.7768 12.9741 24.7767 12.9815 24.7767 12.9873C24.7767 12.9902 24.7766 12.9927 24.7766 12.9948C24.7766 12.9959 24.7766 12.9968 24.7766 12.9977C24.7766 12.9981 24.7766 12.9987 24.7766 12.9989C24.7766 12.9994 24.7766 12.9999 25.7766 13ZM32.2396 7.50048H32.2764V5.50048H32.2396V7.50048ZM32.3594 5.50393C32.328 5.50132 32.3023 5.50055 32.2871 5.50025C32.2725 5.49997 32.2595 5.5 32.2582 5.5V7.5C32.2631 7.5 32.2563 7.50003 32.2479 7.49987C32.2388 7.49969 32.219 7.49916 32.1933 7.49702L32.3594 5.50393Z" fill="#2A3139" mask="url(#path-6-inside-1_1250_19)"/>
<defs>
<filter id="filter0_d_1250_19" x="0" y="5.95337" width="37" height="35.0466" filterUnits="userSpaceOnUse" color-interpolation-filters="sRGB">
<feFlood flood-opacity="0" result="BackgroundImageFix"/>
<feColorMatrix in="SourceAlpha" type="matrix" values="0 0 0 0 0 0 0 0 0 0 0 0 0 0 0 0 0 0 127 0" result="hardAlpha"/>
<feOffset dx="2" dy="2"/>
<feComposite in2="hardAlpha" operator="out"/>
<feColorMatrix type="matrix" values="0 0 0 0 0.164706 0 0 0 0 0.192157 0 0 0 0 0.223529 0 0 0 1 0"/>
<feBlend mode="normal" in2="BackgroundImageFix" result="effect1_dropShadow_1250_19"/>
<feBlend mode="normal" in="SourceGraphic" in2="effect1_dropShadow_1250_19" result="shape"/>
</filter>
</defs>
</svg>
