<svg width="35" height="43" viewBox="0 0 35 43" fill="none" xmlns="http://www.w3.org/2000/svg">
<g filter="url(#filter0_d)">
<path d="M0 10.3056C0 7.92766 1.89838 6 4.24014 6H28.7599C31.1016 6 33 7.92766 33 10.3056V32.6944C33 35.0723 31.1016 37 28.7599 37H4.24014C1.89837 37 0 35.0723 0 32.6944V10.3056Z" fill="white"/>
<path d="M0.5 10.3056C0.5 8.19656 2.18171 6.5 4.24014 6.5H28.7599C30.8183 6.5 32.5 8.19656 32.5 10.3056V32.6944C32.5 34.8034 30.8183 36.5 28.7599 36.5H4.24014C2.18171 36.5 0.5 34.8034 0.5 32.6944V10.3056Z" stroke="#2A3139" stroke-linecap="round"/>
</g>
<path d="M26 14.009C25.1294 14.6113 24.1656 15.0719 23.1455 15.3732C22.5979 14.7558 21.8703 14.3181 21.0609 14.1195C20.2516 13.9208 19.3995 13.9708 18.6201 14.2626C17.8406 14.5544 17.1713 15.074 16.7027 15.7511C16.2341 16.4281 15.9888 17.23 16 18.0483V18.9399C14.4024 18.9806 12.8193 18.633 11.3918 17.9283C9.96431 17.2235 8.73665 16.1834 7.81818 14.9006C7.81818 14.9006 4.18182 22.9258 12.3636 26.4925C10.4914 27.739 8.26105 28.364 6 28.2758C14.1818 32.7342 24.1818 28.2758 24.1818 18.0215C24.181 17.7731 24.1566 17.5254 24.1091 17.2814C25.0369 16.3839 25.6917 15.2508 26 14.009Z" fill="#2A3139" stroke="#2A3139" stroke-linecap="round" stroke-linejoin="round"/>
<path d="M23.8603 39.5366C23.7176 39.8229 23.5988 40.1084 23.4998 40.3856C23.4007 40.1084 23.2819 39.8229 23.1393 39.5366C22.7059 38.6666 22.048 37.7806 21.0518 37.1115C20.7005 36.8755 20.3108 36.6689 19.879 36.5C20.3108 36.3311 20.7005 36.1245 21.0518 35.8885C22.048 35.2194 22.7059 34.3334 23.1393 33.4634C23.2819 33.177 23.4008 32.8914 23.4999 32.6142C23.5989 32.8914 23.7178 33.177 23.8605 33.4634C24.294 34.3334 24.9519 35.2194 25.9481 35.8885C26.2994 36.1245 26.6891 36.331 27.1207 36.4999C26.6889 36.6689 26.2991 36.8754 25.9477 37.1115C24.9515 37.7806 24.2937 38.6666 23.8603 39.5366Z" fill="white" stroke="#2A3139"/>
<path d="M9.86027 9.5366C9.71765 9.82289 9.59881 10.1084 9.49976 10.3856C9.40071 10.1084 9.28187 9.82289 9.13925 9.5366C8.70586 8.66665 8.04799 7.78063 7.0518 7.11146C6.7005 6.87548 6.31077 6.66893 5.87905 6.5C6.31077 6.33107 6.7005 6.12452 7.0518 5.88854C8.04799 5.21937 8.70586 4.33335 9.13925 3.4634C9.28192 3.17702 9.40078 2.89139 9.49985 2.61419C9.59894 2.8914 9.71783 3.17704 9.86052 3.46342C10.294 4.33337 10.9519 5.21938 11.9481 5.88855C12.2994 6.12448 12.6891 6.331 13.1207 6.49991C12.6889 6.66886 12.2991 6.87544 11.9477 7.11146C10.9515 7.78063 10.2937 8.66665 9.86027 9.5366Z" fill="white" stroke="#2A3139"/>
<defs>
<filter id="filter0_d" x="0" y="6" width="35" height="33" filterUnits="userSpaceOnUse" color-interpolation-filters="sRGB">
<feFlood flood-opacity="0" result="BackgroundImageFix"/>
<feColorMatrix in="SourceAlpha" type="matrix" values="0 0 0 0 0 0 0 0 0 0 0 0 0 0 0 0 0 0 127 0" result="hardAlpha"/>
<feOffset dx="2" dy="2"/>
<feComposite in2="hardAlpha" operator="out"/>
<feColorMatrix type="matrix" values="0 0 0 0 0.164706 0 0 0 0 0.192157 0 0 0 0 0.223529 0 0 0 1 0"/>
<feBlend mode="normal" in2="BackgroundImageFix" result="effect1_dropShadow"/>
<feBlend mode="normal" in="SourceGraphic" in2="effect1_dropShadow" result="shape"/>
</filter>
</defs>
</svg>
