<svg width="35" height="43" viewBox="0 0 35 43" fill="none" xmlns="http://www.w3.org/2000/svg">
<g filter="url(#filter0_d_1154_135)">
<path d="M0 10.3056C0 7.92766 1.89838 6 4.24014 6H28.7599C31.1016 6 33 7.92766 33 10.3056V32.6944C33 35.0723 31.1016 37 28.7599 37H4.24014C1.89837 37 0 35.0723 0 32.6944V10.3056Z" fill="white"/>
<path d="M0.5 10.3056C0.5 8.19656 2.18171 6.5 4.24014 6.5H28.7599C30.8183 6.5 32.5 8.19656 32.5 10.3056V32.6944C32.5 34.8034 30.8183 36.5 28.7599 36.5H4.24014C2.18171 36.5 0.5 34.8034 0.5 32.6944V10.3056Z" stroke="#2A3139" stroke-linecap="round"/>
</g>
<path d="M23.4822 14.8724C23.6113 15.0214 23.8159 15.0805 24.0046 15.0235C24.7224 14.8067 25.416 14.5197 26.0757 14.1674C25.7116 14.9736 25.2018 15.7095 24.5684 16.3362C24.45 16.4533 24.3977 16.6216 24.4288 16.7852C24.4753 17.0291 24.4991 17.2769 24.5 17.5253C24.4997 23.1186 21.8425 27.081 18.1395 29.0581C14.9216 30.7762 10.8754 31.0155 7.01582 29.4695C8.89394 29.2265 10.6992 28.5447 12.2814 27.4673C12.4313 27.3653 12.5142 27.1901 12.498 27.0095C12.4819 26.8289 12.3692 26.6712 12.2036 26.5974C10.0337 25.6299 8.67697 24.375 7.84466 23.0567C7.01031 21.7351 6.684 20.3196 6.62449 19.0063C6.56488 17.6908 6.77368 16.4884 6.99979 15.6114C7.05364 15.4026 7.10828 15.2129 7.16018 15.0453C8.1354 16.2158 9.3412 17.1767 10.7056 17.8657C12.3497 18.6958 14.1729 19.1051 16.013 19.0573C16.284 19.0502 16.5 18.8285 16.5 18.5574V17.5543H16.5L16.5 17.5476C16.489 16.7291 16.7289 15.9272 17.1871 15.2502C17.6452 14.5732 18.2993 14.0539 19.0609 13.7624C19.8224 13.4708 20.6547 13.4209 21.4453 13.6194C22.236 13.8178 22.947 14.2551 23.4822 14.8724Z" fill="#2A3139" stroke="#2A3139" stroke-linecap="round" stroke-linejoin="round"/>
<path d="M23.8603 39.5366C23.7176 39.8229 23.5988 40.1084 23.4998 40.3856C23.4007 40.1084 23.2819 39.8229 23.1393 39.5366C22.7059 38.6666 22.048 37.7806 21.0518 37.1115C20.7005 36.8755 20.3108 36.6689 19.879 36.5C20.3108 36.3311 20.7005 36.1245 21.0518 35.8885C22.048 35.2194 22.7059 34.3334 23.1393 33.4634C23.2819 33.177 23.4008 32.8914 23.4999 32.6142C23.5989 32.8914 23.7178 33.177 23.8605 33.4634C24.294 34.3334 24.9519 35.2194 25.9481 35.8885C26.2994 36.1245 26.6891 36.331 27.1207 36.4999C26.6889 36.6689 26.2991 36.8754 25.9477 37.1115C24.9515 37.7806 24.2937 38.6666 23.8603 39.5366Z" fill="white" stroke="#2A3139"/>
<path d="M9.86027 9.5366C9.71765 9.82289 9.59881 10.1084 9.49976 10.3856C9.40071 10.1084 9.28187 9.82289 9.13925 9.5366C8.70586 8.66665 8.04799 7.78063 7.0518 7.11146C6.7005 6.87548 6.31077 6.66893 5.87905 6.5C6.31077 6.33107 6.7005 6.12452 7.0518 5.88854C8.04799 5.21937 8.70586 4.33335 9.13925 3.4634C9.28192 3.17702 9.40078 2.89139 9.49985 2.61419C9.59894 2.8914 9.71783 3.17704 9.86052 3.46342C10.294 4.33337 10.9519 5.21938 11.9481 5.88855C12.2994 6.12448 12.6891 6.331 13.1207 6.49991C12.6889 6.66886 12.2991 6.87544 11.9477 7.11146C10.9515 7.78063 10.2937 8.66665 9.86027 9.5366Z" fill="white" stroke="#2A3139"/>
<defs>
<filter id="filter0_d_1154_135" x="0" y="6" width="35" height="33" filterUnits="userSpaceOnUse" color-interpolation-filters="sRGB">
<feFlood flood-opacity="0" result="BackgroundImageFix"/>
<feColorMatrix in="SourceAlpha" type="matrix" values="0 0 0 0 0 0 0 0 0 0 0 0 0 0 0 0 0 0 127 0" result="hardAlpha"/>
<feOffset dx="2" dy="2"/>
<feComposite in2="hardAlpha" operator="out"/>
<feColorMatrix type="matrix" values="0 0 0 0 0.164706 0 0 0 0 0.192157 0 0 0 0 0.223529 0 0 0 1 0"/>
<feBlend mode="normal" in2="BackgroundImageFix" result="effect1_dropShadow_1154_135"/>
<feBlend mode="normal" in="SourceGraphic" in2="effect1_dropShadow_1154_135" result="shape"/>
</filter>
</defs>
</svg>
